<svg width="160" height="54" viewBox="0 0 160 54" fill="none" xmlns="http://www.w3.org/2000/svg">
<path d="M159.92 3.95368H157.297C157.292 4.0217 157.284 4.08702 157.284 4.15167C157.307 7.99491 157.329 11.8381 157.352 15.6814C157.361 17.1259 157.373 18.5697 157.384 20.0142C157.387 20.3671 157.548 20.6311 157.814 20.86C158.128 21.1301 158.488 21.2587 158.897 21.285V22.0311H151.879V21.3126C151.899 21.3025 151.913 21.289 151.927 21.289C152.791 21.2964 153.327 20.8654 153.494 20.0001C153.549 19.7125 153.583 19.4155 153.584 19.1233C153.593 17.5946 153.589 16.0652 153.589 14.5366V14.3143C152.704 14.3231 151.838 14.3062 150.975 14.348C150.137 14.3891 149.378 14.1446 148.629 13.8241C148.451 13.748 148.279 13.6584 148.083 13.5648C147.441 14.2301 146.672 14.7191 145.815 15.078C144.967 15.4329 144.086 15.6295 143.152 15.6295C143.167 15.6753 143.167 15.7016 143.181 15.7191C144.126 16.9959 145.086 18.2619 146.222 19.3785C146.624 19.7731 147.061 20.1341 147.591 20.3644C147.778 20.4452 147.941 20.46 148.122 20.3826C148.52 20.2129 148.906 20.0236 149.192 19.6849C149.306 19.5516 149.437 19.5031 149.613 19.5105C149.933 19.5239 150.255 19.5064 150.576 19.5206C150.642 19.5233 150.708 19.6041 150.766 19.6573C150.788 19.6768 150.788 19.7199 150.796 19.7522C150.854 19.9691 151.02 20.2425 150.944 20.39C150.787 20.693 150.532 20.9691 150.26 21.1853C149.419 21.8547 148.444 22.1146 147.371 22.054C146.622 22.0116 145.864 22.054 145.121 21.9665C143.985 21.8331 143.068 21.2311 142.275 20.4364C141.626 19.7866 141.133 19.0202 140.641 18.2505C140.261 17.6552 139.847 17.0787 139.412 16.5218C139.039 16.0457 138.569 15.6686 137.997 15.4464C137.773 15.3595 137.688 15.2228 137.709 14.9891C137.725 14.8241 137.712 14.6558 137.712 14.4605C138.319 14.4982 138.908 14.4066 139.5 14.6032C141.999 15.4329 143.825 14.5588 145.025 12.5082C147.164 8.85016 144.784 4.71735 141.207 4.03988C140.412 3.88903 139.574 3.95907 138.756 3.94627C137.877 3.93348 136.998 3.94358 136.119 3.94358H135.836C135.836 4.0419 135.836 4.12338 135.836 4.20487C135.869 9.47509 135.903 14.746 135.934 20.0162C135.936 20.3172 136.062 20.5475 136.282 20.7422C136.636 21.0553 137.016 21.3085 137.523 21.2695V22.0325H130.436V21.2722C131.234 21.3927 131.687 20.9516 131.959 20.2923C132.075 20.0108 132.134 19.6862 132.135 19.3805C132.145 14.2867 132.142 9.19293 132.141 4.09914C132.141 4.05806 132.136 4.01698 132.133 3.95907H128.215C128.215 4.7793 128.21 5.58808 128.215 6.39619C128.239 10.9485 128.265 15.5016 128.292 20.0539C128.296 20.7536 128.841 21.287 129.545 21.2883C129.627 21.2883 129.71 21.2883 129.802 21.2883V22.0331H122.8V21.32C123.02 21.2708 123.237 21.2405 123.443 21.1738C124.01 20.99 124.336 20.5873 124.417 20.0027C124.467 19.6452 124.504 19.2829 124.505 18.9219C124.511 15.7709 124.509 12.62 124.509 9.46971C124.509 9.37947 124.509 9.28923 124.509 9.14444C122.849 10.7479 122.477 12.7567 122.454 14.8915H120.506C120.457 14.4005 120.439 13.9109 120.356 13.4321C120.069 11.7903 119.412 10.3371 118.088 9.2596C117.836 9.05488 117.528 8.91884 117.244 8.75386C116.828 8.5121 116.413 8.54981 115.989 8.74443C114.84 9.27239 114.052 10.168 113.465 11.2509C112.774 12.5244 112.612 13.9015 112.744 15.3272C112.873 16.7178 113.45 17.8996 114.403 18.9064C115.058 19.598 115.889 19.9482 116.796 20.1994C117.422 20.3725 117.919 20.2344 118.401 19.8681C118.475 19.8122 118.563 19.763 118.614 19.6896C118.908 19.26 119.345 19.2532 119.808 19.2074C120.333 19.1556 120.655 19.3583 120.905 19.794C120.067 20.8984 118.995 21.6365 117.56 21.689C116.683 21.7213 115.802 21.6984 114.926 21.6473C113.746 21.5786 112.728 21.0715 111.835 20.3253C110.555 19.2532 109.52 17.9879 109.134 16.3245C108.432 13.3008 109.316 10.1566 111.88 8.18548C112.861 7.43125 113.987 7.05548 115.223 7.04538C115.966 7.03932 116.713 7.02989 117.451 7.10396C118.308 7.19016 119.082 7.53967 119.714 8.13969C120.251 8.64948 120.76 9.18889 121.292 9.72695C121.975 8.43196 122.919 7.35515 124.495 7.04874V3.95638H86.242C86.3147 3.99341 86.3565 4.02102 86.4029 4.03719C87.3073 4.35033 88.038 4.92476 88.6508 5.63118C89.6906 6.82853 90.1371 9.02525 88.2589 10.529C87.7983 10.898 87.24 11.1459 86.7255 11.4482C86.677 11.4765 86.6211 11.4933 86.5376 11.5284C88.2239 11.8651 89.4212 12.8213 90.1115 14.3157C90.9546 16.1393 90.6112 17.8909 89.4313 19.46C88.1538 21.1597 86.3982 21.9988 84.2776 22.0412C83.4345 22.058 82.5819 22.0648 81.7482 21.9611C80.4546 21.8001 79.3879 21.1361 78.4733 20.2263C76.9144 18.6761 76.0322 16.7892 75.7311 14.6254C75.6443 14.0019 75.6146 13.3702 75.5554 12.7048H77.8343C77.8747 13.1527 77.8976 13.6234 77.9622 14.0874C78.1838 15.6726 78.7535 17.1191 79.7656 18.3704C80.5253 19.3098 81.5058 19.9038 82.6991 20.1294C82.8196 20.1522 82.9516 20.1482 83.0735 20.126C83.8708 19.9792 84.6251 19.7152 85.2756 19.2189C86.5605 18.2384 86.9497 16.9252 86.6608 15.375C86.4905 14.4632 86.0918 13.6678 85.4305 13.0106C84.8069 12.391 84.0493 12.086 83.1759 12.0685C82.6863 12.059 82.1967 12.0664 81.691 12.0664V10.9546C81.7516 10.9472 81.8155 10.9344 81.8788 10.9337C82.2169 10.9317 82.555 10.9297 82.893 10.9337C84.0049 10.9465 84.8136 10.4468 85.3477 9.48452C85.9349 8.42724 85.8635 7.33226 85.4379 6.26286C85.0487 5.2837 84.3611 4.53283 83.39 4.07961C83.221 4.00082 83.0223 3.94897 82.8371 3.94829C80.3354 3.93954 77.8336 3.94291 75.3311 3.94291H75.0362V2.72872H137.176C144.656 2.72872 152.136 2.72872 159.616 2.72872C159.717 2.72872 159.818 2.73411 159.92 2.7368V3.95301V3.95368ZM148.901 12.4415C149.074 12.4415 149.201 12.453 149.326 12.4395C149.702 12.3991 150.036 12.4947 150.357 12.6934C150.509 12.787 150.695 12.8537 150.871 12.8725C151.334 12.9224 151.795 13.0624 152.265 12.8705C152.483 12.7816 152.743 12.7971 152.964 12.7129C153.459 12.525 153.589 12.3129 153.589 11.7991V3.96042H144.662C146.041 4.34225 147.132 5.13756 148.052 6.20562C149.088 7.40768 149.592 8.78012 149.487 10.3714C149.439 11.0886 149.244 11.7607 148.902 12.4402" fill="#F17124"/>
<path d="M24.8781 14.3386C24.8532 13.3379 24.8209 12.3365 24.8074 11.3351C24.8034 11.0523 24.8775 10.7687 24.8734 10.4866C24.862 9.67981 24.8223 8.87305 24.8074 8.06628C24.8041 7.85954 24.8775 7.65213 24.8734 7.44539C24.8593 6.66354 24.8041 5.88237 24.8088 5.10119C24.8142 4.17658 24.8377 3.24995 24.9044 2.32803C24.9872 1.17917 25.7374 0.338733 26.8573 0.0552208C26.9031 0.0437726 26.9449 0.0188559 26.9887 0H43.7765C43.895 0.0370384 44.0129 0.0734033 44.1314 0.110442C45.1698 0.435706 45.9005 1.39332 45.9018 2.48426C45.9085 7.15447 45.9058 11.824 45.8991 16.4942C45.8991 16.5912 45.8284 16.7137 45.7516 16.7791C45.5819 16.9259 45.3873 17.0437 45.1577 17.206C45.1577 17.0626 45.1577 16.9656 45.1577 16.8686C45.1577 12.1062 45.1583 7.34303 45.157 2.58056C45.157 1.65999 44.6385 0.979833 43.7913 0.78454C43.6613 0.754236 43.5233 0.744808 43.3893 0.744808C42.2653 0.741441 41.1414 0.742788 40.0174 0.743461C39.9763 0.743461 39.9346 0.750869 39.8484 0.75895C39.8484 0.933367 39.8497 1.10644 39.8484 1.27883C39.841 2.01825 39.4369 2.42096 38.6995 2.42096C36.5028 2.42096 34.3054 2.42096 32.1087 2.42096C31.37 2.42096 30.9592 2.01421 30.9551 1.28153C30.9538 1.11452 30.9551 0.946836 30.9551 0.765684C30.879 0.756256 30.8231 0.742788 30.7679 0.742788C29.6608 0.741441 28.5537 0.734707 27.4473 0.744135C26.5604 0.752216 25.8984 1.25728 25.7004 2.07415C25.6533 2.2681 25.6512 2.47551 25.6506 2.67686C25.6472 6.7558 25.6472 10.8347 25.6459 14.913C25.39 14.7211 25.1341 14.5298 24.8781 14.3386ZM35.0233 1.01485C34.0596 1.01485 33.096 1.01283 32.133 1.0162C31.9033 1.01687 31.7491 1.15492 31.7632 1.34214C31.7794 1.55561 31.9208 1.64652 32.1208 1.66201C32.1713 1.66605 32.2225 1.66336 32.273 1.66336C34.0987 1.66336 35.9243 1.66336 37.75 1.66201C37.8416 1.66201 37.9581 1.67615 38.0194 1.62834C38.115 1.55359 38.2403 1.42429 38.2301 1.33136C38.218 1.22092 38.0867 1.11182 37.9843 1.02899C37.9372 0.990608 37.8375 1.01485 37.7614 1.01485C36.849 1.01485 35.9358 1.01485 35.0233 1.01485ZM39.3642 1.34416C39.3689 1.1428 39.2053 0.969059 39.0053 0.963671C38.8046 0.95761 38.6248 1.11991 38.614 1.31722C38.6026 1.52127 38.7837 1.71185 38.9904 1.71454C39.1857 1.71723 39.3595 1.54551 39.3642 1.34416Z" fill="#1F82C5"/>
<path d="M50.5962 30.5675C51.0016 29.1607 52.7128 28.9566 53.6489 29.5021C53.9889 29.7001 54.2879 29.9459 54.4698 30.3062C55.7095 32.7696 56.9608 35.2269 58.1837 37.699C58.8544 39.0546 58.8733 40.5018 58.6336 41.9591C58.3723 43.5491 57.8046 45.0319 56.6463 46.1741C54.9701 47.8267 53.0387 49.1291 50.6831 49.5809C47.9692 50.1015 45.3529 49.8153 43.029 48.1775C42.2384 47.6206 41.5218 46.9532 40.7966 46.3088C38.8712 44.5969 36.96 42.8682 35.0415 41.149C34.6125 40.7645 34.5707 40.2392 34.9593 39.7967C35.364 39.3361 35.9048 39.1213 36.4913 39.0317C38.3338 38.7502 39.9676 39.2459 41.4175 40.3934C41.5292 40.4816 41.643 40.5678 41.8006 40.6331C41.7548 40.5079 41.7164 40.3799 41.6619 40.2587C40.7898 38.3118 39.9184 36.365 39.0409 34.4201C37.6463 31.3304 36.2422 28.2448 34.8522 25.1531C34.2091 23.7221 35.094 22.3227 36.6705 22.25C37.8368 22.1961 38.5547 22.6554 39.0557 23.7874C40.2053 26.3862 41.3508 28.9862 42.4976 31.5863C42.538 31.6786 42.5798 31.7709 42.6485 31.9244C42.9838 31.0072 43.6148 30.5149 44.5455 30.4765C45.4344 30.4402 46.1799 30.7567 46.7288 31.5527C46.8944 30.6018 47.4399 30.0476 48.3248 29.8597C49.1894 29.6765 49.941 29.9418 50.5962 30.5654" fill="#D9844D"/>
<path d="M19.0315 53.1804C18.2543 53.1804 17.4772 53.1925 16.7001 53.1784C14.799 53.144 12.8986 53.0989 10.9975 53.0551C8.90249 53.0066 6.80814 52.9534 4.71311 52.9023C3.48007 52.872 2.24636 52.8403 1.01332 52.8107C0.422724 52.7965 0.07187 52.4464 0.0637889 51.8571C0.0442596 50.3796 0.0415659 48.9008 0.000486965 47.4239C-0.0163487 46.8172 0.398481 46.4078 0.960118 46.4044C2.84436 46.3936 4.7286 46.3471 6.61217 46.3148C8.58935 46.2811 10.5665 46.2468 12.543 46.2131C14.4859 46.1795 16.4294 46.1458 18.3729 46.1121C21.3218 46.0609 24.27 46.0104 27.219 45.9592C29.145 45.9256 31.0716 45.8939 32.9976 45.8582C34.1384 45.8374 35.2785 45.8023 36.4186 45.7916C36.9075 45.7869 37.3978 45.8158 37.8854 45.8549C38.0221 45.8656 38.1756 45.939 38.2807 46.0306C39.4625 47.0529 40.5912 48.1425 41.8229 49.0994C43.5657 50.4537 45.5685 51.1924 47.7988 51.2382C49.0251 51.2631 50.2454 51.2328 51.4454 50.9197C53.3802 50.4146 55.0516 49.4213 56.5931 48.1836C56.9413 47.9041 57.2638 47.5916 57.6059 47.3041C57.6746 47.2462 57.781 47.201 57.8686 47.2037C58.379 47.2179 58.7359 47.5876 58.738 48.0994C58.742 49.1129 58.742 50.1264 58.738 51.1399C58.7359 51.6254 58.4113 51.9736 57.9312 52.012C56.2308 52.1487 54.5304 52.2807 52.83 52.4167C50.8185 52.5783 48.807 52.7447 46.7954 52.9043C45.1873 53.0322 43.5792 53.1508 41.971 53.278C40.3885 53.4033 38.8079 53.5629 37.2241 53.6525C36.3493 53.7016 35.4678 53.643 34.5896 53.6228C31.5653 53.5535 28.5416 53.4807 25.5172 53.408C23.5071 53.3595 21.4962 53.3097 19.486 53.2612C19.3345 53.2578 19.1823 53.2612 19.0301 53.2612V53.1811M33.595 51.486V48.3728H35.7311C35.7311 48.6873 35.7546 48.991 35.7189 49.2873C35.7061 49.3937 35.5641 49.5398 35.4577 49.5641C35.3701 49.5843 35.2435 49.4563 35.1418 49.3836C35.1041 49.3567 35.0886 49.2988 35.0637 49.255C34.8516 48.8893 34.7061 48.8772 34.3849 49.2105C34.793 49.956 35.2502 50.6726 35.8348 51.3002C36.1089 51.5945 36.2786 51.5736 36.5021 51.2598C36.1479 50.8106 35.7971 50.3661 35.4206 49.8887C36.1809 49.8422 36.3648 49.6462 36.3648 48.956V48.3553H36.8779C36.8732 48.257 36.8698 48.1856 36.8658 48.1001H32.0165V48.3661H32.9579V49.1809C32.5175 49.3136 32.1047 49.552 31.6185 49.3668C31.7026 49.29 31.7801 49.2274 31.8481 49.156C32.1781 48.8099 32.0939 48.3189 31.64 48.1849C31.3639 48.1034 31.0386 48.1115 30.7511 48.164C30.4373 48.2213 30.2891 48.5183 30.3794 48.8301C30.4379 49.0334 30.5585 49.22 30.6555 49.4227C30.5585 49.5129 30.4204 49.6146 30.3161 49.7432C30.007 50.1244 30.1073 50.6928 30.541 50.9123C30.7201 51.0032 30.9437 51.0234 31.1498 51.0389C31.3114 51.051 31.4218 51.0726 31.5168 51.2315C31.7383 51.6032 31.9585 51.6133 32.265 51.3083C32.1404 51.1985 32.0151 51.0887 31.8555 50.9493C32.1155 50.8234 32.2185 50.6813 32.1383 50.4732C32.0474 50.2375 31.8441 50.2355 31.6306 50.2375C31.3013 50.2409 31.2636 50.4725 31.2434 50.717C30.8757 50.6638 30.6945 50.4342 30.7545 50.1136C30.8198 49.7654 31.0528 49.6085 31.3942 49.6658C31.5848 49.6974 31.7801 49.7284 31.9713 49.719C32.3013 49.7042 32.6293 49.6577 32.9795 49.622V51.486H33.5943H33.595ZM3.7481 49.024C3.35549 48.9991 3.21609 49.1722 3.36559 49.558C3.4565 49.7931 3.55684 50.0267 3.67267 50.2503C3.95753 50.8012 4.38448 51.0995 5.03838 51.0517C5.5522 51.014 5.87006 50.6523 5.7576 50.15C5.70642 49.923 5.62089 49.7035 5.55018 49.4792H6.24852V51.4652H6.86605V48.3775H9.73956V49.2624C9.66144 49.2624 9.60353 49.2624 9.54629 49.2624C9.03112 49.2637 8.51527 49.2611 8.0001 49.2671C7.72871 49.2705 7.64184 49.4173 7.79403 49.6429C7.92939 49.8442 8.07957 50.049 8.26678 50.1971C8.37183 50.2799 8.56847 50.2772 8.71663 50.2577C8.76175 50.2517 8.79676 50.0618 8.81023 49.9527C8.82639 49.822 8.81427 49.6873 8.81427 49.5432H9.76044C9.76044 50.1075 9.7739 50.6557 9.75437 51.2025C9.74562 51.4497 9.83586 51.5015 10.0581 51.4914C10.2567 51.4827 10.4056 51.5062 10.3982 51.212C10.3766 50.3601 10.3908 49.5069 10.3908 48.6536V48.3587H10.8952V48.1108H2.88679C2.89689 48.2044 2.9043 48.2752 2.9144 48.3654H6.22563V49.1998H4.69426C4.82288 49.3971 4.92726 49.5385 5.01279 49.6914C5.16633 49.9648 5.25253 50.2523 5.11986 50.5614C5.03367 50.7614 4.88955 50.8153 4.71918 50.682C4.56294 50.5594 4.39997 50.4153 4.30906 50.2443C4.10501 49.8597 3.94339 49.453 3.74944 49.0227M17.554 48.3775H20.4362V49.2617C20.3332 49.2617 20.2497 49.2617 20.1662 49.2617C19.6759 49.2631 19.1864 49.2617 18.6961 49.2664C18.4685 49.2691 18.3466 49.3971 18.4456 49.5506C18.6039 49.7951 18.7803 50.0436 19.0018 50.2267C19.2456 50.4288 19.4908 50.2813 19.4928 49.9715C19.4934 49.8314 19.4928 49.6907 19.4928 49.5385H20.4585V51.4632H21.0753V48.3587H21.5999V48.1081H13.5767C13.5808 48.1984 13.5841 48.2698 13.5882 48.3681H16.9142V49.2018H15.3862C15.5115 49.3924 15.6179 49.5338 15.7027 49.6873C15.8442 49.9432 15.9425 50.2106 15.8327 50.5082C15.7384 50.7635 15.5775 50.8254 15.3714 50.6571C15.2239 50.5358 15.0738 50.3931 14.9882 50.2274C14.7896 49.8415 14.6293 49.4361 14.4468 49.0233C14.0535 48.9944 13.9114 49.1627 14.0582 49.5466C14.1512 49.7897 14.2535 50.0314 14.3747 50.2618C14.663 50.8119 15.0946 51.1049 15.7479 51.0503C16.2354 51.0093 16.5432 50.6678 16.4496 50.1816C16.4038 49.9453 16.3182 49.717 16.2489 49.4772H16.9425V51.4618H17.554V48.3768V48.3775ZM27.9443 48.3775H28.9786V51.4719H29.5834V48.356H30.2124V48.1014H24.2168V48.3614H25.7529C25.7529 48.723 25.7624 49.0584 25.7462 49.393C25.7422 49.4792 25.6587 49.5614 25.6115 49.6456C25.5314 49.5937 25.4364 49.5547 25.3745 49.486C25.3091 49.4126 25.2654 49.3149 25.229 49.2213C25.1576 49.0361 25.0142 49.0462 24.8748 49.0967C24.7778 49.1318 24.697 49.2105 24.5758 49.292C25.0223 49.9513 25.4452 50.5924 25.8849 51.2207C26.1455 51.5924 26.3267 51.5904 26.6338 51.2658C26.3105 50.8375 25.9893 50.4113 25.6674 49.985C25.6802 49.9607 25.693 49.9365 25.7058 49.9123C26.0061 50.0759 26.1577 49.6981 26.4573 49.7607C26.7301 49.8173 27.0237 49.7729 27.3368 49.7729V51.4753C27.4318 51.48 27.4978 51.4867 27.5631 51.486C28.0035 51.4834 27.9402 51.5238 27.9416 51.1083C27.9443 50.2045 27.9422 49.3015 27.9422 48.3782" fill="#1B82C5"/>
<path d="M48.714 28.3128C49.7679 27.5525 50.5316 26.6447 50.4966 25.238C50.4616 23.8554 49.778 22.9093 48.646 22.1947C49.0258 21.8816 49.3774 21.5806 49.741 21.2951C51.3256 20.0519 51.4212 17.0289 49.1497 15.781C49.0393 15.7204 48.9255 15.6666 48.7874 15.5972C50.3962 14.0099 50.5794 12.3068 49.2339 10.4489C52.667 9.79564 56.1163 9.13973 59.6047 8.47573C59.637 8.70941 59.67 8.92154 59.6956 9.13434C59.9831 11.521 60.2606 13.9096 60.5582 16.2949C60.8909 18.9562 61.2343 21.6169 61.5872 24.2756C61.8734 26.4326 62.1798 28.5869 62.4795 30.7425C62.629 31.82 62.7873 32.8968 62.9287 33.975C62.9408 34.0666 62.8795 34.2073 62.8061 34.2652C61.7441 35.0969 60.5475 35.6363 59.2188 35.8841C59.0316 35.9192 58.9373 35.868 58.8484 35.6936C57.8544 33.7292 56.8463 31.7715 55.8503 29.8078C55.2732 28.6697 54.358 27.9936 53.1007 27.8084C52.1061 27.6616 51.1882 27.8993 50.3673 28.4818C50.2447 28.5687 50.1484 28.5829 50.0003 28.5485C49.5922 28.4549 49.1767 28.395 48.7147 28.3128" fill="#F2B837"/>
<path d="M17.6725 35.4377C17.0678 35.5535 16.4913 35.6787 15.9102 35.7717C14.7216 35.9616 13.5283 36.0424 12.3275 35.8848C10.8103 35.6855 9.45201 35.109 8.25129 34.1642C8.18934 34.115 8.14287 33.9952 8.15163 33.915C8.3752 31.8948 8.59878 29.8738 8.83987 27.8556C9.05873 26.0299 9.29914 24.2069 9.52878 22.3826C9.77256 20.4499 10.0157 18.5165 10.2574 16.5838C10.5066 14.5918 10.7551 12.5998 10.9995 10.6078C11.0824 9.93168 11.1531 9.25354 11.2319 8.55453C11.8481 8.68585 12.4407 8.81178 13.0333 8.93905C16.389 9.66096 19.744 10.3856 23.1017 11.0994C23.3522 11.1526 23.4532 11.2368 23.433 11.5068C23.4047 11.8765 23.4209 12.2496 23.4283 12.6213C23.431 12.7628 23.3885 12.8362 23.2579 12.915C23.0229 13.0564 22.7798 13.2133 22.6047 13.4187C20.2706 16.1501 18.7614 19.3098 17.8112 22.7523C17.1277 25.2279 16.7748 27.7532 16.7102 30.3196C16.6684 31.989 17.0489 33.5824 17.5695 35.1508C17.5957 35.2302 17.626 35.309 17.6718 35.4383" fill="#F2B837"/>
<path d="M24.8781 14.3386C25.134 14.5298 25.3899 14.7217 25.6458 14.913C26.4277 16.0161 26.5691 17.235 26.3085 18.5293C26.0775 19.6755 25.8506 20.823 25.6223 21.9698C25.4 22.9422 25.2782 23.9409 24.866 24.8642C24.6451 25.3396 24.4923 25.8184 24.4876 26.3626C24.4647 28.727 24.402 31.0907 24.3603 33.4544C24.33 35.1743 25.6479 36.532 27.3691 36.5421C29.3807 36.5535 31.3922 36.538 33.403 36.5535C34.6697 36.5636 35.9365 36.6094 37.2032 36.639C37.2341 36.6727 37.2651 36.7064 37.2954 36.7407C37.2254 36.767 37.1459 36.7798 37.086 36.8202C35.6112 37.8303 34.2132 38.9711 32.5437 39.6607C31.6737 40.0203 30.7821 40.3651 29.8669 40.5658C29.1113 40.7308 28.3059 40.7166 27.5234 40.7072C23.3798 40.6574 19.9891 38.0909 18.7688 34.1366C18.2045 32.3089 18.0766 30.4563 18.251 28.5573C18.4921 25.9221 19.0133 23.3544 19.9419 20.8748C20.8066 18.565 21.9945 16.4396 23.5616 14.5264C23.8478 14.1769 24.1508 14.119 24.5401 14.2362C24.6532 14.2699 24.7657 14.3042 24.8781 14.3379" fill="#D9844D"/>
<path d="M0.154007 44.2285C2.13859 35.3003 4.11913 26.3942 6.09833 17.4902H7.37918C6.10506 25.6972 4.83364 33.8881 3.55548 42.1241C4.05785 42.2244 4.55551 42.3403 5.05923 42.4224C7.83577 42.8736 10.5571 42.5302 13.2151 41.7214C15.3014 41.0863 17.3479 40.3227 19.4119 39.6156C19.6907 39.52 19.9864 39.3146 20.2423 39.3556C20.4948 39.396 20.7056 39.6883 20.9386 39.8647C22.9097 41.3564 25.1118 42.1382 27.6028 42.1887C29.5382 42.2285 31.3538 41.8406 33.0932 41.0257C33.1384 41.0042 33.1862 40.9873 33.2717 40.9523C33.2798 41.5611 33.6926 41.9025 34.0886 42.2561C34.7438 42.8413 35.3964 43.4299 36.0503 44.0171C36.1163 44.0763 36.1796 44.1396 36.2732 44.2285H0.154007Z" fill="#CD2427"/>
<path d="M144.99 42.1389V43.6615H137.472V42.1389C138.085 42.0554 138.707 41.9705 139.366 41.881C139.217 41.3826 139.075 40.9099 138.933 40.4372C138.766 39.8802 138.593 39.3247 138.436 38.765C138.395 38.6182 138.34 38.5637 138.18 38.5644C136.1 38.5704 134.022 38.567 131.942 38.5731C131.869 38.5731 131.747 38.6256 131.731 38.6795C131.404 39.7422 131.089 40.8082 130.763 41.9052C131.457 41.984 132.13 42.0608 132.818 42.1396V43.6669H126.311V42.1375C126.726 42.0662 127.138 41.9793 127.555 41.9308C127.757 41.9079 127.841 41.8264 127.904 41.6426C129.293 37.5401 130.686 33.4389 132.079 29.3378C132.589 27.838 133.102 26.339 133.604 24.8366C133.666 24.6507 133.74 24.5753 133.953 24.578C135.086 24.5921 136.218 24.5915 137.351 24.578C137.561 24.5753 137.638 24.646 137.702 24.8339C139.61 30.4422 141.525 36.0478 143.435 41.6554C143.489 41.8143 143.554 41.9032 143.74 41.9261C144.149 41.9773 144.555 42.0628 144.99 42.1389ZM132.263 36.7535H137.838C136.925 33.48 135.757 30.3014 135.024 27.0757C134.115 30.2604 133.191 33.4982 132.263 36.7535Z" fill="#F17124"/>
<path d="M87.4481 26.2757V24.7026H93.8288C93.8288 25.1881 93.8335 25.6743 93.8214 26.1612C93.8201 26.2104 93.7258 26.2871 93.6638 26.3006C93.2349 26.3929 92.8059 26.4878 92.3715 26.5484C92.1493 26.5794 92.086 26.6562 92.0867 26.8818C92.0948 29.8718 92.0948 32.8611 92.0907 35.8511C92.0894 37.0276 92.0038 38.194 91.6651 39.3307C91.0018 41.5557 89.5344 42.9813 87.3101 43.5746C85.31 44.108 83.3005 43.9962 81.3503 43.3113C79.262 42.578 78.1104 41.0082 77.6094 38.9071C77.3508 37.8243 77.2834 36.7239 77.2848 35.6147C77.2882 32.7177 77.2861 29.8213 77.2861 26.9242V26.6131C76.8733 26.5289 76.4646 26.4427 76.0544 26.3626C75.5911 26.2723 75.5905 26.2743 75.5905 25.8063V24.7032H83.3241C83.3241 25.1948 83.3295 25.6824 83.3153 26.1693C83.314 26.2171 83.1954 26.2892 83.1227 26.302C82.4755 26.4164 81.827 26.5208 81.1657 26.6299C81.1597 26.702 81.1496 26.7673 81.1496 26.8326C81.1509 30.1263 81.1415 33.4201 81.1617 36.7138C81.1684 37.8323 81.3368 38.9334 81.8021 39.9684C82.4513 41.4116 83.5786 42.1483 85.1497 42.2271C86.1282 42.2763 87.0548 42.1241 87.8508 41.5018C88.5142 40.9833 88.8946 40.2748 89.1654 39.4984C89.4819 38.5886 89.6152 37.6438 89.6186 36.6868C89.6307 33.3844 89.6246 30.0826 89.6246 26.7801C89.6246 26.7383 89.6192 26.6973 89.6152 26.6326C88.894 26.5141 88.1741 26.3956 87.4461 26.2757" fill="#F17124"/>
<path d="M146.118 42.8164C146.194 41.2533 146.27 39.6957 146.347 38.1233H148.423C148.518 38.6728 148.613 39.2196 148.708 39.7664C148.788 40.2318 148.881 40.6957 148.94 41.1638C148.967 41.3739 149.066 41.4998 149.23 41.6049C149.707 41.9099 150.232 42.0877 150.782 42.1914C151.74 42.3712 152.695 42.3813 153.644 42.1221C155.82 41.5274 156.004 38.8304 154.87 37.7071C154.415 37.2559 153.918 36.8693 153.349 36.5831C152.498 36.1548 151.636 35.7508 150.779 35.3333C149.711 34.8127 148.724 34.1723 147.836 33.377C146.819 32.4658 146.359 31.3075 146.28 29.9728C146.118 27.2427 147.788 25.3821 150.363 24.7416C152.193 24.2864 154.032 24.382 155.859 24.8096C156.597 24.9827 157.332 25.174 158.107 25.3666C158.057 26.8326 158.007 28.3135 157.956 29.8206C157.291 29.8206 156.651 29.8246 156.011 29.8118C155.962 29.8105 155.886 29.6926 155.873 29.6199C155.712 28.7229 155.554 27.8259 155.415 26.9262C155.383 26.7154 155.292 26.5915 155.112 26.502C154.344 26.1174 153.526 25.9875 152.679 26.0272C152.36 26.042 152.038 26.0838 151.727 26.1578C149.559 26.675 149.454 29.0697 150.341 30.1566C150.768 30.6806 151.27 31.1163 151.867 31.4301C153.137 32.0968 154.418 32.7406 155.685 33.4127C156.438 33.8127 157.161 34.2605 157.788 34.8545C159.588 36.5602 159.676 38.7213 158.818 40.6109C158.093 42.2103 156.754 43.0864 155.135 43.5854C153.85 43.9814 152.523 44.0043 151.193 43.9181C149.664 43.8184 148.216 43.3416 146.747 42.9618C146.545 42.9093 146.339 42.8675 146.116 42.8164" fill="#F17124"/>
<path d="M97.1299 26.607C96.5427 26.5067 95.9703 26.4003 95.3945 26.3148C95.2288 26.2899 95.1628 26.2427 95.1675 26.0663C95.1797 25.6131 95.1716 25.1592 95.1716 24.6959H103.364C103.364 25.1881 103.37 25.675 103.354 26.1612C103.353 26.2117 103.223 26.2892 103.146 26.3006C102.478 26.3983 101.808 26.4825 101.138 26.5727C101.064 26.5828 100.991 26.6043 100.911 26.6225V41.8561C101.187 41.8439 101.453 41.8318 101.719 41.8204C103.188 41.7591 104.657 41.6951 106.126 41.6412C106.317 41.6345 106.401 41.5665 106.46 41.3867C106.928 39.9712 107.408 38.5583 107.884 37.1455C107.916 37.0505 107.951 36.9569 107.989 36.8505C108.674 36.9434 109.349 37.035 110.057 37.1313C109.792 39.3173 109.529 41.4891 109.265 43.6696H95.1386V42.1396C95.8073 42.0534 96.4659 41.9685 97.1306 41.883V26.607H97.1299Z" fill="#F17124"/>
<path d="M124.292 36.8498C124.977 36.9427 125.651 37.0343 126.363 37.1306C126.099 39.3112 125.837 41.4762 125.573 43.6608H111.448V42.1389C112.11 42.054 112.768 41.9692 113.439 41.883V26.6077C112.794 26.4972 112.148 26.3868 111.495 26.275V24.7026H119.642V26.2764C118.841 26.3861 118.034 26.4972 117.223 26.6084V41.8183C117.52 41.8183 117.811 41.8284 118.102 41.817C119.554 41.7598 121.006 41.6938 122.458 41.6392C122.63 41.6331 122.702 41.5746 122.756 41.4123C123.234 39.9732 123.722 38.5374 124.208 37.101C124.234 37.0222 124.261 36.9441 124.293 36.8512" fill="#F17124"/>
<path d="M4.42555 41.5597C5.8384 32.389 7.2472 23.2466 8.65938 14.08C9.054 14.2099 9.4392 14.3285 9.81565 14.4685C9.86548 14.4867 9.90656 14.616 9.89848 14.6874C9.79477 15.5676 9.68298 16.4464 9.57052 17.3252C9.35906 18.9825 9.14626 20.6391 8.93481 22.2964C8.7247 23.945 8.51526 25.5942 8.30515 27.2434C8.0937 28.9007 7.87955 30.5573 7.66809 32.2146C7.58055 32.9008 7.49974 33.5884 7.40478 34.2733C7.38391 34.4228 7.43105 34.4996 7.55024 34.5817C9.59274 35.9838 11.848 36.6087 14.3222 36.4626C15.4387 36.3966 16.5351 36.2107 17.6213 35.9568C17.8004 35.9151 17.8866 35.9393 17.9634 36.1225C18.3452 37.0337 18.8921 37.8424 19.5507 38.5765C19.612 38.6452 19.6739 38.7138 19.7574 38.8081C19.6227 38.8593 19.5103 38.9038 19.3958 38.9448C17.4206 39.6546 15.4589 40.4055 13.467 41.0621C11.4258 41.7348 9.31933 42.0715 7.15831 41.9678C6.24582 41.9241 5.34478 41.7975 4.42555 41.5604" fill="#F17124"/>
<path d="M105.867 14.5035H103.789C103.769 14.2187 103.751 13.9533 103.732 13.6873C103.651 12.5277 103.358 11.4246 102.797 10.4051C102.283 9.47036 101.566 8.73565 100.554 8.33833C100.409 8.28109 100.222 8.27368 100.069 8.30668C99.0175 8.53564 98.2411 9.18685 97.5818 9.99226C96.4295 11.3997 95.94 13.0274 96.0012 14.8355C96.078 17.1252 97.0525 18.9212 98.9603 20.192C99.4775 20.5368 100.075 20.7361 100.694 20.7765C100.968 20.7947 101.286 20.6923 101.527 20.5502C101.886 20.3388 102.19 20.0357 102.529 19.7886C102.641 19.7071 102.787 19.6411 102.923 19.631C103.234 19.6081 103.548 19.6128 103.86 19.631C103.943 19.6357 104.061 19.7105 104.094 19.7839C104.391 20.4526 104.391 20.4586 103.874 20.99C103.16 21.7247 102.291 22.1375 101.261 22.151C100.257 22.1637 99.2478 22.2318 98.2539 22.0257C96.1797 21.5954 94.6611 20.3792 93.5284 18.6411C92.6752 17.3319 92.3163 15.874 92.3048 14.3204C92.29 12.2987 92.7931 10.4475 94.0955 8.86024C95.0362 7.71407 96.1945 6.89585 97.6882 6.67699C98.3353 6.58204 99.0014 6.60561 99.6586 6.58743C100.378 6.5679 101.087 6.611 101.794 6.78339C102.964 7.06892 103.945 7.64403 104.743 8.54103C104.957 8.78144 104.932 8.73835 105.186 8.55719C105.651 8.22722 106.152 7.94572 106.642 7.65211C106.757 7.58342 106.898 7.5612 107.014 7.49453C107.691 7.10125 108.428 7.10731 109.211 7.16792C109.211 7.46692 109.215 7.77535 109.206 8.0831C109.205 8.12149 109.142 8.18008 109.097 8.19287C107.905 8.53632 107.246 9.44814 106.721 10.4711C106.109 11.6644 105.905 12.9627 105.866 14.2914C105.864 14.3581 105.866 14.4254 105.866 14.5042" fill="#F17124"/>
<path d="M66.5511 41.6406C64.3974 42.1793 62.2748 42.1173 60.1178 41.6756C60.371 39.7805 60.0943 37.9859 59.134 36.2989C59.4464 36.2228 59.7158 36.1616 59.9831 36.0909C61.1778 35.7764 62.2735 35.2457 63.3058 34.5736C63.4324 34.4915 63.4661 34.4053 63.4479 34.2632C63.0634 31.2927 62.6795 28.3222 62.3004 25.3511C61.9536 22.6392 61.6128 19.9273 61.268 17.2154C61.1542 16.3204 61.0364 15.4261 60.9165 14.5035C61.3313 14.3635 61.7428 14.2254 62.1974 14.0719C63.5469 23.2796 65.3483 32.3991 66.5517 41.6406" fill="#F17124"/>
<path d="M70.2711 44.2339H59.5279C59.703 43.6016 59.8768 42.9719 60.0552 42.3248C62.4647 42.747 64.8749 42.7322 67.2898 42.1039C66.0157 33.8969 64.7443 25.7053 63.4702 17.4949H64.751C66.5888 26.3983 68.4272 35.303 70.2711 44.2333" fill="#CD2427"/>
<path d="M67.3443 49.5681C66.4743 49.5681 65.6035 49.5654 64.7335 49.5708C64.5651 49.5722 64.4614 49.5324 64.3846 49.3594C64.2499 49.0536 63.9388 48.9109 63.66 48.9843C63.357 49.0644 63.1475 49.3627 63.1469 49.7156C63.1469 50.0597 63.3523 50.3506 63.6492 50.4254C63.9583 50.5028 64.2351 50.3695 64.39 50.0442C64.4499 49.919 64.518 49.8739 64.6567 49.8745C66.3807 49.8813 68.1046 49.8813 69.8279 49.8853C69.9289 49.8853 70.0333 49.8867 70.1289 49.9136C70.1895 49.9304 70.236 49.9957 70.2892 50.0395C70.2421 50.0914 70.203 50.1769 70.1471 50.189C69.9586 50.2294 69.7639 50.2449 69.572 50.2671C67.9787 50.4463 66.5962 51.1136 65.3645 52.1096C64.9584 52.4383 64.5873 52.8107 64.2095 53.173C64.0526 53.3231 63.9004 53.3555 63.7092 53.2524C62.4404 52.5696 61.0687 52.1931 59.6673 51.9049C59.2693 51.8228 59.2033 51.7467 59.2013 51.3466C59.1966 50.249 59.1972 49.1513 59.2013 48.0529C59.2026 47.6778 59.2706 47.5963 59.6343 47.5229C61.0539 47.2367 62.4384 46.8441 63.7233 46.1592C63.9449 46.0414 64.0782 46.1296 64.2344 46.269C64.7826 46.7566 65.3086 47.2765 65.8978 47.7088C67.1147 48.6024 68.4959 49.0893 70.0044 49.2153C70.1047 49.2233 70.2737 49.323 70.2778 49.389C70.2906 49.5769 70.1128 49.5654 69.9801 49.5654C69.1013 49.5681 68.2225 49.5668 67.3437 49.5668V49.5688L67.3443 49.5681Z" fill="#1B81C5"/>
<path d="M147.724 47.23C147.745 47.3041 147.767 47.3788 147.798 47.4879H147.146C147.137 47.5842 147.124 47.6563 147.124 47.7277C147.123 48.7836 147.124 49.8388 147.122 50.8948C147.122 51.1453 147.177 51.346 147.464 51.4019C147.495 51.4079 147.539 51.4732 147.534 51.5029C147.527 51.5359 147.471 51.5817 147.436 51.5823C146.912 51.5871 146.388 51.5871 145.864 51.5817C145.829 51.5817 145.796 51.5285 145.761 51.5002C145.795 51.4625 145.822 51.4059 145.864 51.3911C146.111 51.3049 146.204 51.1345 146.171 50.8806C145.354 51.1621 144.551 51.2409 143.821 50.6779C143.269 50.2517 143.064 49.6638 143.139 48.9351C143.261 48.9418 143.382 48.9445 143.502 48.956C143.686 48.9742 143.87 49.0112 144.054 49.0179C144.527 49.0341 144.835 48.6092 144.684 48.1607C144.552 47.7687 144.115 47.4623 143.765 47.492C143.373 47.525 142.975 47.4994 142.552 47.4994C142.552 47.6677 142.552 47.8091 142.552 47.9499C142.559 48.9546 142.571 49.9601 142.567 50.9648C142.566 51.1958 142.646 51.3298 142.864 51.3965C142.906 51.4093 142.935 51.4658 142.97 51.5022C142.927 51.5305 142.884 51.5823 142.841 51.583C142.334 51.5884 141.826 51.5897 141.319 51.5823C141.264 51.5817 141.208 51.517 141.116 51.4598C141.541 51.3224 141.61 51.2288 141.61 50.8375C141.61 49.8072 141.61 48.7769 141.61 47.7465C141.61 47.6724 141.602 47.5984 141.598 47.5135H138.415V48.195C138.781 48.1613 139.143 48.1007 139.505 48.0994C140.302 48.096 140.907 48.7385 140.908 49.5553C140.909 50.3419 140.289 50.9877 139.507 50.9884C139.151 50.9884 138.795 50.9426 138.425 50.9163C138.363 51.146 138.423 51.2739 138.679 51.3911C138.728 51.4133 138.762 51.4692 138.803 51.5089C138.75 51.5352 138.696 51.5837 138.643 51.5844C138.161 51.5904 137.679 51.5904 137.197 51.5844C137.144 51.5837 137.092 51.5339 137.039 51.5069C137.081 51.4685 137.117 51.416 137.166 51.3945C137.428 51.2813 137.432 51.0551 137.438 50.8833C137.038 50.9197 136.644 50.9857 136.249 50.985C135.504 50.983 134.899 50.3311 134.886 49.5621C134.874 48.826 135.475 48.1371 136.196 48.1075C136.601 48.0906 137.01 48.1418 137.429 48.1627V47.5074H134.675C134.67 47.4105 134.667 47.3391 134.661 47.2327H134.971C136.915 47.2327 138.859 47.2361 140.802 47.2313C142.71 47.2266 144.619 47.2138 146.526 47.2051C146.619 47.2051 146.712 47.2152 146.804 47.2206C147.11 47.2239 147.417 47.2273 147.723 47.2307M144.049 49.3015C144.066 49.9116 144.337 50.323 144.806 50.6045C145.226 50.8557 145.615 50.719 145.986 50.4658C146.122 50.3722 146.185 50.2618 146.183 50.088C146.174 49.2954 146.179 48.5028 146.178 47.7101C146.178 47.6462 146.167 47.5815 146.16 47.5149H145.07C145.134 47.5593 145.167 47.5835 145.201 47.6058C145.599 47.8644 145.77 48.2199 145.658 48.6368C145.549 49.0388 145.245 49.2489 144.848 49.2967C144.592 49.3277 144.33 49.3028 144.049 49.3028M137.443 49.5466C137.443 49.319 137.447 49.0913 137.44 48.8637C137.439 48.8018 137.424 48.6981 137.388 48.6853C137.163 48.6024 136.925 48.4664 136.702 48.4853C136.206 48.527 135.822 49.0604 135.844 49.5782C135.867 50.1392 136.283 50.583 136.822 50.622C137.17 50.6476 137.443 50.3964 137.443 50.0516C137.443 49.8833 137.443 49.7143 137.443 49.5459M138.399 50.5574C138.543 50.5702 138.652 50.5729 138.758 50.5904C139.386 50.6934 139.896 50.3244 139.975 49.69C140.026 49.2765 139.847 48.9546 139.525 48.7048C139.22 48.4678 138.891 48.4502 138.554 48.6199C138.487 48.6543 138.408 48.7486 138.406 48.8166C138.395 49.3883 138.399 49.9601 138.399 50.5574Z" fill="#2383C5"/>
<path d="M42.2916 27.566C42.2572 26.9303 42.5252 26.4272 43.002 26.0434C44.0149 25.2285 45.025 24.409 46.0708 23.6386C47.0002 22.9544 48.7578 23.4062 48.9989 24.9255C49.1174 25.6716 48.9187 26.3074 48.3026 26.7902C47.2864 27.5869 46.2883 28.4064 45.2634 29.191C44.3879 29.8604 42.7912 29.5526 42.332 28.0684C42.2835 27.9115 42.3037 27.7337 42.2916 27.566Z" fill="#D9854E"/>
<path d="M151.776 50.8948C151.732 51.156 151.783 51.2544 152.047 51.3837C152.094 51.4066 152.122 51.4665 152.16 51.5096C152.112 51.5325 152.065 51.5756 152.017 51.5763C151.519 51.581 151.02 51.581 150.522 51.5756C150.478 51.5756 150.435 51.5244 150.392 51.4968C150.427 51.4618 150.456 51.4086 150.498 51.3958C150.673 51.3433 150.75 51.2247 150.786 51.0294C150.448 51.2624 150.139 51.48 149.825 51.6907C149.311 52.0355 148.749 52.2456 148.124 52.2773C147.776 52.2948 147.776 52.3015 147.698 51.9554C147.685 51.8982 147.675 51.8409 147.658 51.7594C148.567 51.7258 149.427 51.5392 150.262 50.987C150.01 50.987 149.831 50.9924 149.651 50.9863C148.862 50.9601 148.254 50.3298 148.254 49.5418C148.254 48.758 148.867 48.1135 149.653 48.1014C150.026 48.0953 150.401 48.1452 150.783 48.1701V47.502H148.032V47.2408H159.275V47.4973H158.628C158.622 47.6064 158.614 47.6886 158.614 47.7701C158.614 48.7923 158.613 49.8139 158.614 50.8362C158.614 51.1035 158.649 51.35 158.985 51.4039C159.012 51.4086 159.03 51.4746 159.053 51.5116C159.007 51.5365 158.962 51.5817 158.916 51.583C158.604 51.5897 158.29 51.5864 157.978 51.5864C157.792 51.5864 157.606 51.5944 157.42 51.5823C157.355 51.5783 157.294 51.5251 157.243 51.4699C157.614 51.3325 157.686 51.2396 157.688 50.8685C157.69 50.3473 157.688 49.826 157.688 49.2913H156.834C156.834 49.5311 156.868 49.7782 156.825 50.0106C156.772 50.2934 156.699 50.5897 156.555 50.8341C156.335 51.2092 155.798 51.3183 155.298 51.1554C154.904 51.0267 154.643 50.6618 154.637 50.2314C154.625 49.4341 154.985 49.0779 155.893 49.0051V47.5142H151.774V48.1963C152.143 48.1627 152.516 48.1007 152.89 48.1007C153.669 48.1007 154.292 48.7775 154.281 49.5769C154.271 50.3358 153.628 50.9938 152.874 50.987C152.509 50.9837 152.145 50.9284 151.775 50.8968M150.796 49.5479C150.796 49.329 150.799 49.1095 150.794 48.89C150.792 48.8186 150.785 48.696 150.75 48.6839C150.517 48.6017 150.265 48.463 150.04 48.494C149.508 48.5674 149.184 49.0752 149.217 49.657C149.246 50.1513 149.65 50.5688 150.158 50.6267C150.509 50.6671 150.796 50.4213 150.796 50.0786C150.796 49.9015 150.796 49.7243 150.796 49.5472M151.757 50.5338C151.959 50.5554 152.134 50.5782 152.31 50.591C152.629 50.6146 152.882 50.4806 153.085 50.2449C153.401 49.8779 153.426 49.3412 153.148 48.9614C152.836 48.5351 152.388 48.4017 151.933 48.6132C151.861 48.6462 151.767 48.7324 151.765 48.7957C151.752 49.3742 151.757 49.9526 151.757 50.5331M156.85 49.0051H157.674V47.5128H156.85V49.0051ZM155.919 49.4011C155.506 49.7594 155.45 50.3203 155.745 50.8274C155.99 50.3823 155.889 49.9102 155.919 49.4011Z" fill="#1F82C5"/>
<path d="M43.1051 20.6917C43.0963 20.0957 43.326 19.6047 43.7859 19.2323C44.6573 18.5252 45.52 17.806 46.4176 17.1339C47.5147 16.3117 49.2076 17.0484 49.4063 18.4094C49.5141 19.1509 49.3073 19.7845 48.7201 20.2613C47.8884 20.9361 47.0473 21.6008 46.2008 22.258C45.5846 22.7362 44.9085 22.8001 44.2068 22.4594C43.5004 22.1166 43.1064 21.4708 43.1051 20.6923" fill="#D9854E"/>
<path d="M79.6208 48.9385V47.5074H75.6685V47.234H85.8487C85.8534 47.3223 85.8574 47.393 85.8628 47.492H85.2258C85.2258 48.09 85.2224 48.661 85.2264 49.2321C85.2305 49.8146 85.2487 50.3971 85.2473 50.9796C85.2473 51.1904 85.2965 51.3406 85.5194 51.4012C85.5598 51.412 85.5854 51.4746 85.6184 51.513C85.5719 51.5372 85.5261 51.5823 85.4796 51.5823C84.9813 51.5877 84.4823 51.5877 83.984 51.5823C83.9402 51.5823 83.8971 51.5305 83.854 51.5029C83.8755 51.4726 83.8931 51.4187 83.9186 51.4147C84.2432 51.3695 84.2486 51.1311 84.2594 50.8214C83.7981 51.1843 83.2917 51.152 82.7907 51.1419C81.9038 51.1237 81.2182 50.4517 81.2068 49.5937C81.1953 48.7297 81.9017 47.9876 82.7711 47.9479C83.2809 47.925 83.7826 47.9445 84.248 48.2516V47.5196H80.5596C80.5596 47.6509 80.5583 47.7748 80.5596 47.8987C80.5704 48.9371 80.5852 49.9762 80.5886 51.0146C80.5886 51.2369 80.6667 51.3642 80.8889 51.4066C80.9293 51.414 80.961 51.4719 80.9967 51.5069C80.9522 51.5332 80.9084 51.5823 80.864 51.583C80.3569 51.5884 79.8498 51.5891 79.3427 51.583C79.2922 51.583 79.2431 51.5264 79.1932 51.4961C79.2316 51.4618 79.2646 51.4093 79.309 51.3971C79.5461 51.3325 79.6283 51.1608 79.6303 50.9399C79.635 50.5008 79.637 50.0611 79.6269 49.6227C79.6249 49.5419 79.5811 49.4334 79.5198 49.3883C79.3461 49.2597 79.1535 49.158 78.9568 49.0381C79.0188 49.3176 79.1144 49.5634 79.1212 49.8126C79.142 50.5884 78.5003 51.2362 77.7238 51.249C77.4881 51.253 77.2457 51.2652 77.0174 51.218C76.3143 51.0732 75.8342 50.3944 75.886 49.6584C75.9352 48.962 76.517 48.4058 77.2416 48.3526C78.0821 48.2906 78.872 48.4395 79.6215 48.9398M84.2594 49.5459C84.2594 49.4274 84.2594 49.3095 84.2594 49.191C84.2594 48.9998 84.2897 48.8065 84.085 48.6745C83.8028 48.492 83.5462 48.2442 83.1738 48.3088C82.695 48.3923 82.2519 48.8631 82.1778 49.3425C82.0964 49.8665 82.3348 50.3675 82.7974 50.6268C83.0991 50.7958 83.4042 50.8705 83.7274 50.6631C84.0466 50.4584 84.3638 50.2624 84.2621 49.7978C84.2446 49.717 84.2594 49.6294 84.2594 49.5452M78.1696 49.8106C78.1891 49.4193 78.076 49.0725 77.8282 48.7762C77.5999 48.5028 77.4275 48.5055 77.1817 48.7614C76.7972 49.1607 76.614 50.3621 77.2982 50.9318C77.4437 51.053 77.573 51.0699 77.7225 50.9392C78.0666 50.6369 78.1972 50.2537 78.1696 49.8106Z" fill="#2282C5"/>
<path d="M24.866 24.8635C25.2782 23.9403 25.4001 22.9423 25.6216 21.9692C25.6263 22.0958 25.6351 22.2217 25.6351 22.3483C25.6358 26.0232 25.6351 29.6974 25.6364 33.3723C25.6364 34.2915 26.1072 34.9696 26.9139 35.1925C27.122 35.2504 27.3469 35.2693 27.5638 35.27C31.1646 35.2747 34.7654 35.2754 38.3662 35.268C38.5817 35.268 38.711 35.3124 38.781 35.5279C38.8403 35.709 38.9359 35.8787 39.0282 36.0794C38.9251 36.0868 38.8537 36.0969 38.7824 36.0969C35.0125 36.0976 31.2427 36.0996 27.4729 36.0963C26.1826 36.0949 25.1825 35.2908 24.9347 34.0578C24.8869 33.8201 24.8808 33.5709 24.8808 33.3271C24.8775 30.6072 24.8788 27.8872 24.8781 25.1672C24.8781 25.0662 24.8701 24.9652 24.866 24.8635Z" fill="#1B81C5"/>
<path d="M107.757 49.8516C107.979 49.8846 108.201 49.9163 108.423 49.9513C108.908 50.0281 109.347 49.8085 109.608 49.3546C109.844 48.9465 109.807 48.4347 109.514 48.0718C109.215 47.7021 108.827 47.5088 108.35 47.4994C108.132 47.4953 107.914 47.4987 107.685 47.4987V47.2354H115.327V47.4946H114.687C114.679 47.5849 114.669 47.6495 114.669 47.7142C114.673 48.7869 114.684 49.8597 114.678 50.9325C114.677 51.1695 114.747 51.3177 114.975 51.3951C115.027 51.4126 115.06 51.4854 115.148 51.5857C114.518 51.5857 113.978 51.5877 113.438 51.5823C113.394 51.5823 113.349 51.5325 113.305 51.5056C113.339 51.4692 113.368 51.4113 113.408 51.4012C113.625 51.3473 113.717 51.1951 113.718 50.9931C113.722 49.853 113.718 48.7129 113.716 47.5728C113.716 47.5579 113.704 47.5431 113.691 47.5128H112.671C112.664 47.5701 112.651 47.634 112.652 47.6973C112.66 48.795 112.675 49.8927 112.679 50.9904C112.679 51.1985 112.751 51.3237 112.947 51.3938C112.998 51.4119 113.031 51.4833 113.121 51.585C112.491 51.585 111.951 51.587 111.411 51.581C111.369 51.581 111.328 51.5278 111.286 51.4988C111.314 51.4658 111.339 51.4086 111.371 51.4045C111.644 51.3689 111.71 51.1675 111.718 50.9486C111.732 50.587 111.722 50.2247 111.722 49.8368C111.585 49.8368 111.462 49.8382 111.339 49.8368C111.153 49.8341 110.944 49.8813 110.786 49.8126C110.448 49.6651 110.196 49.7742 109.905 49.9378C109.679 50.0651 109.401 50.0994 109.054 50.2025C109.393 50.5129 109.71 50.8092 110.035 51.0981C110.196 51.2422 110.371 51.2274 110.543 51.1015C110.596 51.0624 110.661 51.0012 110.714 51.0086C110.823 51.0234 110.928 51.0766 111.035 51.1136C110.983 51.2066 110.953 51.3311 110.874 51.3864C110.289 51.7951 109.203 51.6295 108.719 51.0624C108.582 50.9022 108.478 50.7129 108.337 50.5587C108.191 50.3998 108.014 50.2691 107.856 50.121C107.797 50.0651 107.753 49.9937 107.703 49.9291C107.721 49.9035 107.738 49.8779 107.757 49.8523M110.576 49.395C110.682 49.4173 110.77 49.4415 110.86 49.453C111.05 49.4765 111.24 49.5149 111.428 49.5082C111.627 49.5014 111.74 49.3957 111.731 49.1634C111.715 48.7432 111.726 48.3216 111.726 47.9007V47.5081H109.555C110.715 48.032 110.831 48.7425 110.576 49.395Z" fill="#2282C5"/>
<path d="M94.5756 47.5128H93.651C93.6456 47.5782 93.6348 47.6502 93.6355 47.7223C93.6449 48.8119 93.6611 49.9008 93.6624 50.9904C93.6624 51.2039 93.7513 51.3163 93.9345 51.3918C93.9837 51.412 94.0167 51.4699 94.0577 51.5103C94.0032 51.5359 93.9493 51.583 93.8941 51.583C93.4038 51.5891 92.9136 51.5891 92.4233 51.583C92.3715 51.583 92.3203 51.5305 92.2691 51.5029C92.3122 51.4672 92.3506 51.414 92.3998 51.3985C92.6934 51.3069 92.7062 51.0645 92.7069 50.8254C92.7109 49.7951 92.7089 48.7641 92.7082 47.7337C92.7082 47.6677 92.7001 47.6017 92.6941 47.5075H92.0759C92.0705 47.4078 92.0671 47.3371 92.0617 47.2381H99.5899V47.4879H97.9656C98.6828 47.8731 99.2775 48.3135 99.0344 49.1573C98.829 49.8712 98.1993 50.0954 97.4686 50.1533C97.7926 50.5715 98.1111 50.9581 98.5623 51.1998C98.6323 51.2369 98.7704 51.15 98.8754 51.1177C98.9919 51.0813 99.1057 51.0254 99.2243 51.0099C99.2768 51.0032 99.3697 51.0645 99.3886 51.1157C99.4081 51.1682 99.3812 51.2766 99.3374 51.3069C99.2014 51.4012 99.0539 51.5177 98.899 51.5399C97.8222 51.6935 97.3521 51.5116 96.7999 50.7109C96.6383 50.4766 96.3844 50.3076 96.1763 50.1042C96.1258 50.0543 96.0908 49.9883 96.0491 49.9298L96.0895 49.8564C96.3097 49.8853 96.5306 49.9102 96.7501 49.9439C97.2592 50.0227 97.7326 49.7614 97.9596 49.2718C98.1757 48.8045 98.0653 48.2563 97.6761 47.9351C97.3333 47.6516 96.9346 47.5048 96.4881 47.4994C96.1864 47.4953 95.8841 47.4987 95.5554 47.4987C95.5554 47.6145 95.5554 47.7048 95.5554 47.795C95.5595 48.8422 95.5696 49.8894 95.5649 50.9372C95.5635 51.1743 95.6396 51.3238 95.8686 51.3965C95.909 51.4093 95.9346 51.4692 95.9676 51.5069C95.9231 51.5332 95.8794 51.5823 95.8342 51.583C95.3271 51.5884 94.8201 51.5884 94.313 51.583C94.2712 51.583 94.2301 51.5278 94.1891 51.4988C94.2254 51.4652 94.2571 51.4133 94.2988 51.4019C94.5002 51.3487 94.6019 51.214 94.6025 51.018C94.6066 49.8698 94.6025 48.721 94.6012 47.5728C94.6012 47.558 94.5877 47.5431 94.5743 47.5142" fill="#2383C5"/>
<path d="M130.819 47.5034C130.819 48.7122 130.819 49.886 130.819 51.0591C130.819 51.2557 130.958 51.3291 131.114 51.3945C131.155 51.412 131.182 51.4658 131.216 51.5029C131.173 51.5305 131.13 51.5817 131.087 51.5823C130.58 51.5877 130.073 51.5877 129.565 51.5823C129.523 51.5823 129.481 51.5291 129.439 51.5002C129.475 51.4658 129.512 51.4328 129.545 51.3971C129.646 51.2887 129.833 51.1796 129.835 51.0685C129.856 49.8887 129.848 48.7088 129.848 47.5135H128.912C128.901 47.5351 128.886 47.5492 128.886 47.5627C128.889 48.7028 128.894 49.8422 128.895 50.9823C128.895 51.2113 128.96 51.3783 129.221 51.4079C129.252 51.4113 129.277 51.4712 129.305 51.5049C129.27 51.5318 129.233 51.581 129.198 51.5817C128.674 51.5871 128.15 51.5871 127.626 51.5817C127.588 51.5817 127.551 51.5359 127.513 51.5116C127.546 51.4746 127.574 51.412 127.612 51.4052C127.852 51.3621 127.931 51.2005 127.932 50.9864C127.936 50.319 127.936 49.6523 127.931 48.9849C127.931 48.9203 127.894 48.8226 127.845 48.7977C127.486 48.6152 127.118 48.5364 126.733 48.7378C126.363 48.9311 126.126 49.2179 126.084 49.6402C126.033 50.156 126.175 50.6254 126.452 51.0584C126.507 51.1433 126.565 51.2261 126.644 51.3433C126.469 51.4234 126.31 51.5211 126.138 51.5689C125.944 51.6234 125.773 51.5918 125.636 51.3918C125.352 50.9769 125.175 50.5304 125.139 50.0301C125.075 49.1432 125.805 48.3883 126.764 48.3546C127.141 48.3418 127.519 48.3526 127.916 48.3526V47.5054H124.886V47.2219H131.458V47.5007H130.818L130.819 47.5034Z" fill="#2483C5"/>
<path d="M119.78 47.5H119.2V47.2468C119.272 47.2414 119.337 47.2313 119.403 47.2313C121.126 47.2307 122.85 47.23 124.573 47.2327C124.668 47.2327 124.812 47.1728 124.817 47.3593C124.822 47.5465 124.681 47.4953 124.583 47.496C124.138 47.5 123.693 47.498 123.177 47.498C123.89 47.8698 124.464 48.3162 124.237 49.1459C124.039 49.8658 123.407 50.0894 122.66 50.1527C122.997 50.5736 123.323 50.9594 123.775 51.216C123.814 51.2382 123.888 51.218 123.938 51.1971C124 51.1722 124.053 51.1271 124.108 51.0894C124.285 50.9682 124.52 50.9601 124.579 51.084C124.686 51.3056 124.485 51.3635 124.36 51.4376C123.866 51.7312 122.865 51.6288 122.451 51.2308C122.265 51.0517 122.13 50.8194 121.952 50.6288C121.783 50.4469 121.586 50.29 121.405 50.1183C121.346 50.0624 121.3 49.9924 121.249 49.9291C121.265 49.9035 121.283 49.8786 121.3 49.8537C121.515 49.8826 121.729 49.9089 121.943 49.9419C122.461 50.022 122.923 49.7702 123.155 49.2772C123.371 48.8186 123.296 48.259 122.892 47.9667C122.602 47.7559 122.245 47.5936 121.894 47.5189C121.541 47.4435 121.158 47.5021 120.775 47.5021C120.768 47.5862 120.758 47.6509 120.758 47.7155C120.761 48.7883 120.772 49.8611 120.766 50.9338C120.764 51.1722 120.838 51.3197 121.067 51.3938C121.109 51.4073 121.136 51.4638 121.17 51.5002C121.129 51.5285 121.087 51.581 121.045 51.5817C120.537 51.5871 120.03 51.5871 119.523 51.5817C119.48 51.5817 119.437 51.5298 119.393 51.5015C119.428 51.4665 119.459 51.4106 119.5 51.3998C119.716 51.3446 119.806 51.1918 119.807 50.9897C119.812 49.8577 119.809 48.7257 119.809 47.5943C119.809 47.5707 119.795 47.5479 119.781 47.4994" fill="#2383C5"/>
<path d="M118.277 48.7654H119.317C119.327 48.8422 119.335 48.9115 119.346 48.9923C119.29 49.0045 119.251 49.0199 119.212 49.0199C118.679 49.022 118.147 49.0186 117.614 49.0226C117.176 49.0253 116.781 49.1486 116.463 49.4631C116.158 49.7627 116.149 50.121 116.279 50.4954C116.411 50.8766 116.65 51.1614 117.069 51.2355C117.391 51.2928 117.717 51.0045 117.717 50.6813C117.717 50.4799 117.717 50.2786 117.717 50.0617H118.688C118.672 50.4638 118.656 50.8564 118.64 51.2497C118.618 51.8039 118.064 52.377 117.558 52.3675C117.439 52.3653 117.358 52.2962 117.313 52.1601C117.673 51.9103 117.714 51.8396 117.694 51.5581C117.281 51.5581 116.87 51.5951 116.467 51.55C115.778 51.4732 115.279 50.8975 115.243 50.2085C115.226 49.8658 115.387 49.5998 115.632 49.3924C115.861 49.1977 116.121 49.0388 116.374 48.8603C116.248 48.8045 116.102 48.7519 115.966 48.6772C115.704 48.5317 115.492 48.3337 115.5 48.0071C115.509 47.6805 115.706 47.4468 115.98 47.3101C116.636 46.9828 117.325 46.9734 117.988 47.263C118.651 47.5519 118.75 48.1075 118.277 48.7661M117.628 47.9836C117.628 47.9836 117.633 47.9149 117.618 47.8502C117.552 47.5734 117.366 47.3579 117.111 47.3047C116.968 47.2751 116.742 47.4084 116.625 47.5344C116.335 47.8462 116.419 48.4226 116.776 48.6509C116.881 48.7183 117.06 48.7546 117.168 48.7122C117.453 48.6011 117.632 48.3809 117.628 47.9836Z" fill="#2483C5"/>
<path d="M104.309 47.5H103.7C103.69 47.5499 103.677 47.5889 103.677 47.628C103.686 48.7755 103.699 49.923 103.704 51.0705C103.705 51.3473 103.904 51.385 104.189 51.447C104.073 51.5184 104.019 51.5803 103.964 51.581C103.457 51.5884 102.95 51.587 102.444 51.5823C102.399 51.5823 102.354 51.5345 102.309 51.5096C102.344 51.4739 102.373 51.4126 102.412 51.4066C102.669 51.3648 102.74 51.1776 102.743 50.9655C102.753 50.3075 102.75 49.6489 102.743 48.9903C102.743 48.9263 102.703 48.83 102.653 48.8045C102.296 48.6193 101.927 48.5371 101.542 48.7344C101.163 48.929 100.921 49.2213 100.882 49.6557C100.824 50.288 101.057 50.8281 101.449 51.3386C101.278 51.4194 101.125 51.5123 100.96 51.5642C100.756 51.6275 100.581 51.6019 100.436 51.3924C100.14 50.9635 99.9643 50.4995 99.9367 49.9816C99.8916 49.1331 100.634 48.3903 101.565 48.358C101.949 48.3445 102.334 48.356 102.729 48.356V47.5081H99.6775C99.6734 47.4138 99.6694 47.3377 99.6633 47.2084C100.436 47.2084 101.185 47.2098 101.935 47.2084C102.619 47.2071 103.303 47.2118 103.987 47.1936C104.211 47.1876 104.325 47.2435 104.308 47.5014" fill="#2282C5"/>
<path d="M46.5813 15.7797V10.8751C47.2628 10.8313 47.7982 11.0893 48.2447 11.5964C48.7814 12.2072 48.7888 13.4658 48.1679 14.1156C47.6783 14.6274 47.2015 15.1514 46.718 15.6692C46.6911 15.6982 46.656 15.7197 46.582 15.7797" fill="#D9854F"/>
<path d="M91.0213 49.4711V49.0502C90.8502 49.0502 90.6852 49.0502 90.5202 49.0502C90.1707 49.0509 89.8818 48.9182 89.6461 48.6623C89.232 48.2132 89.4037 47.5 89.9936 47.2737C90.3984 47.1188 90.8226 47.1094 91.2361 47.2347C91.7412 47.3875 91.9573 47.702 91.9587 48.2286C91.9587 48.632 91.9587 49.0347 91.9587 49.4597H92.5439C92.552 49.5492 92.558 49.6199 92.5661 49.7115H91.9587C91.9587 49.861 91.9587 49.9917 91.9587 50.1217C91.956 50.6368 91.6395 51.0469 91.1391 51.1224C90.8758 51.1621 90.5963 51.1594 90.333 51.1203C89.8414 51.0476 89.5478 50.7055 89.5741 50.2947C89.601 49.8779 90.001 49.5041 90.4644 49.4731C90.6401 49.4617 90.8172 49.4711 91.0219 49.4711M91.0947 48.0879C90.9916 47.8812 90.9122 47.6919 90.8017 47.5229C90.7755 47.4825 90.6112 47.4751 90.5654 47.5148C90.2724 47.7714 90.2691 48.43 90.5593 48.6832C90.6064 48.7243 90.7728 48.7196 90.7964 48.6819C90.9081 48.5027 90.9896 48.3047 91.0947 48.0879ZM90.7559 50.9446C91.0125 50.7358 91.0954 50.3452 91.0058 49.7849C90.7445 49.8442 90.5977 50.0247 90.5472 50.2624C90.494 50.5149 90.5384 50.7621 90.7559 50.9439" fill="#1F82C5"/>
<path d="M42.6054 9.72963C43.2916 9.50403 43.9179 10.0886 43.792 10.8212C43.7118 11.2873 43.5199 11.6906 43.1273 11.9735C42.9145 12.127 42.6828 12.1816 42.4431 12.0267C42.2135 11.8785 42.2081 11.6523 42.2478 11.4193C42.332 10.9283 42.6236 10.5822 43.0344 10.3236C43.097 10.2845 43.1617 10.2475 43.2276 10.2091C43.0169 9.98149 42.831 9.96533 42.6613 10.199C42.5044 10.4152 42.3913 10.6643 42.2647 10.9021C42.1616 11.096 42.0613 11.2913 41.9724 11.492C41.9084 11.6368 41.8377 11.6832 41.6835 11.6004C41.5347 11.5203 41.4606 11.4536 41.5582 11.2724C41.7414 10.9303 41.9098 10.5802 42.0673 10.2259C42.2128 9.90068 42.1818 9.7303 41.9609 9.49864C41.9232 9.80168 41.8377 10.067 41.5488 10.1653C41.5387 10.3606 41.5602 10.5431 41.5151 10.7074C41.4343 11.0024 41.1367 11.1842 40.8558 11.1506C40.542 11.1135 40.2982 10.8691 40.2814 10.5377C40.2545 10.003 40.4626 9.56868 40.8915 9.24409C40.9319 9.21378 40.9771 9.19021 41.0195 9.1626C41.0532 9.14038 41.0868 9.11748 41.1333 9.08651C40.903 8.96327 40.707 9.01108 40.5259 9.14307C40.1467 9.41918 40.0188 9.82256 39.9757 10.265C39.9689 10.3323 39.9932 10.4165 39.9609 10.463C39.9198 10.5216 39.8383 10.568 39.7676 10.5815C39.7319 10.5882 39.6491 10.5128 39.6417 10.4664C39.542 9.84209 39.9925 8.72824 40.8249 8.65349C40.8915 8.64743 40.969 8.62858 41.0242 8.65349C41.6067 8.91882 42.2727 9.06361 42.6054 9.7303M43.3415 10.5586C42.9037 10.7721 42.666 11.0657 42.5866 11.4778C42.5738 11.5459 42.6121 11.6435 42.6613 11.694C42.6842 11.7176 42.8135 11.6805 42.8546 11.6354C43.1159 11.3452 43.2923 11.0125 43.3421 10.5586M40.6922 9.96398C40.6673 10.1357 40.6141 10.2798 40.637 10.4098C40.6552 10.5095 40.769 10.5916 40.8404 10.6812C40.9252 10.599 41.0585 10.5303 41.0862 10.432C41.1616 10.1613 40.9461 10.0744 40.6922 9.96398ZM40.9387 9.62727C40.9441 9.65084 40.9488 9.67441 40.9542 9.69865C41.0639 9.72895 41.1751 9.78552 41.2828 9.77946C41.3495 9.77609 41.4323 9.68787 41.468 9.61784C41.4949 9.56396 41.4599 9.47844 41.4518 9.40638C41.3744 9.41514 41.2882 9.40504 41.2222 9.43669C41.1205 9.48517 41.033 9.56194 40.9387 9.62727Z" fill="#2884C6"/>
<path d="M39.8336 13.4907C39.6935 13.115 39.7979 12.8321 40.0773 12.6321C40.3252 12.455 40.5972 12.4644 40.8612 12.6308C41.2969 12.9042 41.4734 13.3183 41.3515 13.8261C41.3104 13.9971 41.2424 14.1615 41.1871 14.3285C41.2087 14.3392 41.2296 14.3494 41.2511 14.3601C41.2949 14.2961 41.342 14.2349 41.3811 14.1682C41.5037 13.9561 41.6229 13.7426 41.7434 13.5298C41.8101 13.4126 41.8511 13.2833 42.0424 13.3971C42.2195 13.5022 42.2249 13.5911 42.1259 13.7581C41.7959 14.3177 41.4801 14.8854 41.1616 15.4517C41.0996 15.5622 41.0511 15.6612 40.8949 15.5622C40.7575 15.4753 40.6626 15.3992 40.7777 15.2248C40.8706 15.0847 40.9474 14.9332 41.0215 14.7817C41.039 14.746 41.0329 14.6611 41.0134 14.6524C40.971 14.6335 40.903 14.6308 40.8639 14.6524C40.0033 15.1366 38.9628 14.6706 38.7871 13.7123C38.7648 13.5931 38.7743 13.4577 38.8066 13.3399C38.8867 13.0449 39.0248 12.9971 39.2807 13.1533C39.4531 13.2584 39.6248 13.3641 39.8336 13.4921M40.5656 14.3534C40.0652 14.0443 39.6086 13.7621 39.1096 13.4544C39.1244 13.8921 39.2975 14.1722 39.6147 14.3568C39.9043 14.5244 40.208 14.5824 40.5656 14.3541M40.7461 14.0584C41.0336 13.6658 41.0498 13.3143 40.8026 13.0483C40.7575 13.4059 40.5952 13.6577 40.1595 13.6995C40.3817 13.8355 40.5649 13.9473 40.7461 14.0584Z" fill="#2884C6"/>
<path d="M32.8677 15.278C33.1276 16.0026 33.5135 16.6686 33.7 17.408C33.6818 17.4228 33.6636 17.4377 33.6455 17.4525C33.4057 17.3104 33.1667 17.1683 32.9289 17.0269C32.4171 17.7629 31.807 17.8404 31.1417 17.2572C30.9733 17.1097 30.8285 16.9238 30.71 16.7326C30.6171 16.5838 30.5693 16.4302 30.3544 16.4006C30.2312 16.3837 30.2117 16.2659 30.3147 16.1723C30.3639 16.1272 30.4224 16.0901 30.4817 16.0585C31.1572 15.6928 31.8299 15.3211 32.5121 14.9696C32.6609 14.8928 32.8454 14.8712 33.0158 14.8571C33.0737 14.8524 33.1404 14.9473 33.203 14.9965C33.1559 15.0504 33.1148 15.1117 33.0602 15.1574C33.0037 15.2053 32.935 15.2376 32.8677 15.2793M32.1323 16.1669C32.042 16.7104 31.8865 16.8982 31.5895 16.8302C31.3423 16.7737 31.2662 16.509 31.3807 16.0693C31.1652 16.1804 30.9619 16.2848 30.6992 16.4201C31.04 16.6639 31.3376 16.8929 31.6521 17.0962C31.8791 17.243 32.1013 17.1609 32.3107 17.0201C32.4872 16.9009 32.5047 16.7319 32.4697 16.5514C32.4333 16.3642 32.3511 16.2053 32.1329 16.1676M32.9633 16.6484C32.9855 16.6302 33.0084 16.612 33.0306 16.5932C32.8616 16.2181 32.6926 15.843 32.5175 15.4537C32.3262 15.5575 32.1707 15.6423 32.0151 15.7265L32.0003 15.7925C32.6562 15.7063 32.6892 16.3103 32.9626 16.6484" fill="#2683C6"/>
<path d="M29.2197 10.7337C29.081 11.1916 28.914 11.5459 28.5618 11.7762C28.2278 11.9944 27.8749 12.0583 27.5072 11.8806C27.0681 11.6684 26.9954 11.2145 27.3362 10.8691C27.4358 10.7681 27.5436 10.6745 27.5113 10.6933C27.4823 10.5936 27.4621 10.4899 27.4217 10.395C27.3968 10.335 27.3523 10.2576 27.2998 10.2408C27.2089 10.2118 27.1052 10.2239 27.0069 10.2185C27.0271 10.3088 27.0419 10.401 27.0702 10.4886C27.0782 10.5142 27.1395 10.5223 27.1476 10.5479C27.1739 10.6287 27.2277 10.758 27.1954 10.7889C27.1355 10.8455 27.0042 10.89 26.9341 10.8617C26.6695 10.7546 26.4924 10.3404 26.5712 10.0731C26.6547 9.78958 26.9126 9.66701 27.3106 9.72223C27.5853 9.3074 27.9066 9.2138 28.2318 9.45421C28.613 9.7357 28.6877 10.2098 28.3759 10.5586C28.1746 10.7829 27.922 10.96 27.7045 11.1714C27.6358 11.2381 27.6082 11.3459 27.5624 11.4354C27.6695 11.4671 27.7806 11.5351 27.883 11.5243C28.3712 11.4745 28.7524 11.063 28.8675 10.5061C28.914 10.2818 28.9032 10.0812 28.7699 9.88183C28.6487 9.70068 28.5604 9.49731 28.452 9.30673C28.3847 9.18821 28.3591 9.0946 28.5147 9.0212C28.646 8.95924 28.7389 8.93837 28.8238 9.09662C29.1517 9.71415 29.4891 10.327 29.8265 10.9405C29.8898 11.0556 29.9019 11.1391 29.7591 11.2011C29.6346 11.2556 29.5255 11.3075 29.446 11.1371C29.3901 11.0179 29.3181 10.9061 29.2218 10.7344M27.8628 10.432C28.052 10.2563 28.2662 10.1357 28.0944 9.88857C28.0561 9.83335 27.8857 9.80035 27.8298 9.83739C27.5362 10.0327 27.8257 10.2051 27.8628 10.432Z" fill="#2683C6"/>
<path d="M36.8746 15.9056C36.7749 15.973 36.7008 16.0235 36.6213 16.0773C36.4799 15.9278 36.525 15.7979 36.6456 15.6989C36.785 15.5844 36.9325 15.6174 37.049 15.7494C37.1944 15.913 37.1863 16.2248 37.0012 16.3669C36.4772 16.7676 35.9021 16.9932 35.2321 16.7689C34.8758 16.6497 34.696 16.3716 34.6044 16.0302C34.5411 15.7945 34.496 15.5534 34.4509 15.3137C34.4172 15.1352 34.3445 15.0066 34.1586 14.9399C33.9674 14.8719 33.9054 14.715 33.933 14.5258C35.0011 14.6598 36.0462 14.4719 37.0901 14.4685C37.2227 14.8355 37.2099 14.8598 36.857 14.9406C36.506 15.0214 36.325 15.2389 36.3143 15.5931C36.3062 15.8275 36.292 16.0618 36.2813 16.2942C36.6328 16.3521 36.8429 16.2214 36.8746 15.9063M35.1297 16.1581C35.1587 16.1548 35.1876 16.1514 35.2166 16.148C35.2166 15.8356 35.226 15.5231 35.2078 15.212C35.2045 15.1568 35.096 15.0827 35.0247 15.0658C34.9809 15.0557 34.8657 15.1386 34.8671 15.1776C34.8765 15.5258 34.9317 15.8652 35.1304 16.1581M35.6738 16.4672C35.6967 16.4699 35.7203 16.4726 35.7432 16.4753C35.7722 16.4316 35.8233 16.3891 35.826 16.344C35.8442 15.9581 35.8557 15.5716 35.861 15.1857C35.861 15.1494 35.8072 15.113 35.7775 15.0766C35.7338 15.1197 35.6563 15.1595 35.6516 15.2059C35.6307 15.4228 35.6206 15.6423 35.6254 15.8598C35.6294 16.0625 35.657 16.2645 35.6738 16.4666" fill="#2683C6"/>
<path d="M36.0913 11.9385C36.2523 11.9694 36.3661 11.9917 36.4799 12.0132C36.5297 11.8206 36.556 11.6294 36.6287 11.4563C36.7654 11.129 37.0483 10.962 37.3183 11.0172C37.6449 11.0832 37.8382 11.3196 37.8389 11.6974C37.8389 11.9061 37.8173 12.1203 37.7688 12.323C37.583 13.1069 36.9223 13.4671 36.061 13.255C35.5694 13.1338 35.1411 12.9035 35.0435 12.3573C34.9479 11.822 35.129 11.3364 35.4819 10.933C35.6933 10.6913 36.0738 10.6926 36.2826 10.8926C36.4826 11.0846 36.486 11.5169 36.2853 11.7553C36.2381 11.8112 36.1782 11.857 36.0913 11.9385ZM37.15 12.5324C37.0597 12.5432 36.9668 12.5742 36.8806 12.5607C36.6402 12.5237 36.4011 12.4732 36.1634 12.4179C36.0523 12.3924 35.9082 12.3728 35.8489 12.2961C35.7957 12.2267 35.8375 12.0839 35.8375 11.9755C35.7156 11.9452 35.5977 11.9156 35.4772 11.8853C35.4024 12.2152 35.4873 12.4759 35.7654 12.6415C36.0927 12.8375 36.4543 12.9264 36.8294 12.8193C36.9628 12.7816 37.0732 12.6617 37.1944 12.5796C37.2712 12.3014 37.3695 12.0267 37.4153 11.7432C37.4375 11.6065 37.3439 11.43 37.1628 11.4866C37.0725 11.5149 36.9883 11.6698 36.9675 11.7795C36.9479 11.8846 36.9789 12.0691 37.0496 12.1088C37.2618 12.228 37.2288 12.3654 37.15 12.5324ZM35.8664 11.1344C35.7795 11.2415 35.7284 11.3048 35.6772 11.3674C35.7351 11.4139 35.7937 11.4967 35.8503 11.4954C35.9068 11.494 35.9937 11.4152 36.0072 11.3566C36.0179 11.3095 35.9385 11.2415 35.8671 11.1344" fill="#2683C6"/>
<path d="M31.1013 8.51479C31.0447 9.0138 31.277 9.32761 31.7424 9.38485C32.2057 9.44209 32.6548 9.36869 33.071 9.1606C33.6017 8.89595 33.696 8.20838 33.2454 7.86089C33.1411 7.78076 32.9633 7.75314 32.8266 7.76796C32.638 7.78884 32.5464 7.94709 32.5424 8.1343C32.5383 8.32286 32.6481 8.41445 32.8286 8.46361C32.9161 8.48718 32.9855 8.58011 33.0629 8.64139C32.9828 8.70335 32.9107 8.7983 32.8205 8.8212C32.5188 8.89864 32.2124 8.9606 31.904 9.00571C31.8299 9.01649 31.7437 8.94174 31.6629 8.90605C31.7242 8.84948 31.7767 8.76193 31.8481 8.74173C32.0582 8.68247 32.2764 8.65082 32.5121 8.60368C32.4757 8.54711 32.4468 8.50199 32.4171 8.45687C32.2178 8.15855 32.242 7.78412 32.473 7.57805C32.7155 7.36256 33.1121 7.36458 33.3828 7.58209C33.9243 8.01847 33.9828 9.02794 33.4953 9.51954C33.0313 9.9869 32.0467 10.1404 31.4622 9.83672C30.8682 9.52897 30.6157 8.66092 30.9491 8.08245C31.112 7.79961 31.3679 7.66964 31.6817 7.66223C31.8979 7.65684 32.0838 7.74506 32.1565 7.96864C32.2319 8.19963 32.1457 8.38482 31.9504 8.51546C31.673 8.70133 31.3868 8.71075 31.1013 8.51411M31.5006 8.51883C31.6373 8.35249 31.7498 8.25754 31.7929 8.13767C31.8063 8.10063 31.6407 7.94574 31.5457 7.93295C31.3888 7.91207 31.2265 7.9976 31.2481 8.1875C31.2588 8.28111 31.376 8.36259 31.5006 8.51816" fill="#2984C6"/>
<path d="M34.0589 18.4289C34.4792 18.1064 34.9142 18.099 35.2522 18.3804C35.6745 18.7326 35.7499 19.0653 35.5075 19.5441C35.5634 19.6101 35.622 19.6802 35.6778 19.7462C36.3654 19.4828 36.4853 19.3179 36.4597 18.7454C36.2489 18.604 36.0698 18.4828 35.89 18.3623C35.9034 18.334 35.9176 18.3064 35.9311 18.2781C36.3567 18.3064 36.7856 18.3097 37.2052 18.3764C37.3479 18.3993 37.4658 18.5805 37.5621 18.7367C37.3311 18.7225 37.1001 18.7077 36.8503 18.6922C36.7843 19.4936 36.7196 20.2708 36.6543 21.0614C36.1479 20.8021 36.3722 20.3623 36.3573 19.9428C36.127 20.0775 35.89 20.1213 35.8213 20.4263C35.7203 20.8755 35.3182 21.0809 34.8643 20.9509C34.3384 20.8001 34.0179 20.3859 33.6731 20.0054C33.6495 19.9792 33.6697 19.9125 33.6697 19.864C33.6906 19.8539 33.7114 19.8431 33.7323 19.833C33.9121 20.0182 34.0839 20.2115 34.2731 20.3859C34.6206 20.7065 35.0495 20.7186 35.3283 20.4C35.4246 20.2896 35.4859 20.1186 35.4974 19.9697C35.5176 19.7064 35.4065 19.6317 35.1526 19.7138C34.8785 19.8027 34.8462 19.5468 34.692 19.4303C34.826 19.3636 34.958 19.3226 35.0563 19.2418C35.1553 19.1596 35.2536 19.0485 35.2933 18.93C35.3788 18.6741 35.2684 18.5259 34.9984 18.5468C34.7876 18.5629 34.5822 18.6444 34.3202 18.7111C34.2664 18.6532 34.1667 18.5448 34.0589 18.4283" fill="#2984C6"/>
<path d="M30.0366 12.6819C30.2945 13.1271 30.5524 13.5527 30.7854 13.9911C30.842 14.0975 30.8157 14.2477 30.8272 14.3783C30.6319 14.3729 30.4352 14.3729 30.242 14.35C30.2292 14.3487 30.2379 14.1756 30.2332 14.0827C30.2292 14.0012 30.2191 13.9204 30.2117 13.8389C30.1194 13.8638 29.9766 13.8604 29.9436 13.919C29.8231 14.1345 29.7214 14.3648 29.648 14.6012C29.6076 14.7312 29.5591 14.7877 29.4285 14.783C29.2561 14.7763 29.1746 14.7083 29.2386 14.5271C29.2904 14.3797 29.3914 14.2106 29.2035 14.1103C29.1705 14.0928 29.019 14.2961 28.9234 14.3985C28.8601 14.4665 28.7988 14.5938 28.7362 14.5938C28.6123 14.5938 28.489 14.5238 28.3651 14.4827C28.4224 14.3884 28.4715 14.2867 28.5402 14.2012C28.619 14.1035 28.7288 14.0295 28.7988 13.9264C28.8372 13.8699 28.8217 13.7763 28.8305 13.6995C28.7604 13.7069 28.6803 13.6961 28.6217 13.7264C28.4729 13.8039 28.3375 13.9089 28.1873 13.9837C28.1227 14.016 28.0345 13.9998 27.957 14.0052C27.984 13.9278 27.9873 13.82 28.0419 13.7783C28.6702 13.2968 29.3046 12.8227 29.9443 12.356C30.0083 12.3095 30.1181 12.3257 30.2069 12.3136C30.182 12.4025 30.1625 12.4934 30.1302 12.5796C30.1167 12.6153 30.075 12.6409 30.0352 12.6833M29.6009 13.7897C29.7564 13.7635 29.9463 13.7594 29.9362 13.4995C29.9268 13.2712 29.7719 12.9884 29.644 12.9863C29.446 12.983 29.153 13.2288 29.1577 13.3944C29.1625 13.5608 29.4116 13.7944 29.6009 13.7904" fill="#2884C6"/>
<path d="M36.5453 8.50066C36.5385 8.48719 36.554 8.51615 36.5688 8.5451C36.7311 8.86161 36.7029 9.10674 36.484 9.27375C36.2571 9.44682 35.8941 9.42325 35.6698 9.20506C35.3412 8.88586 35.1877 8.47843 35.1237 8.03599C35.1048 7.9067 35.1028 7.79491 34.9392 7.75518C34.8853 7.74238 34.8179 7.64406 34.82 7.58682C34.8213 7.53497 34.9068 7.48311 34.9587 7.43597C35.0341 7.36796 35.1445 7.3188 35.185 7.23462C35.3102 6.97535 35.5136 6.8575 35.787 6.84538C35.9978 6.83595 36.2113 6.82181 36.4187 6.84673C36.4934 6.85548 36.556 6.97131 36.6241 7.03798C36.554 7.0932 36.4894 7.18546 36.4126 7.19556C36.2301 7.22115 36.0402 7.19287 35.857 7.21576C35.7473 7.22923 35.6436 7.29792 35.5378 7.34169C35.5446 7.37806 35.5506 7.41442 35.5574 7.45079C35.7183 7.45079 35.8793 7.44607 36.0395 7.45213C36.2671 7.46089 36.4941 7.47099 36.7204 7.49254C36.8847 7.50803 36.9412 7.61712 36.8806 7.76326C36.7816 8.00098 36.6672 8.23263 36.5439 8.49998M36.3702 7.8535C36.0779 7.84003 35.8045 7.82791 35.5331 7.81511C35.4907 8.10805 35.5035 8.13633 35.6671 8.16192C36.1547 8.23869 36.3244 8.17203 36.3702 7.8535ZM35.7304 8.54645C35.7129 8.57069 35.6954 8.59494 35.6772 8.61918C35.7654 8.73299 35.8362 8.87306 35.9493 8.95051C36.02 8.99899 36.156 8.95253 36.2631 8.94849C36.2214 8.84074 36.2099 8.68787 36.1311 8.63669C36.024 8.56665 35.8665 8.57271 35.7304 8.54645Z" fill="#2683C6"/>
<path d="M33.3438 12.4691C33.2084 12.4994 33.073 12.5297 32.9316 12.5621C32.9182 12.6031 32.9013 12.6503 32.8872 12.6988C32.8104 12.9641 32.6791 13.1836 32.3835 13.2402C32.0824 13.2974 31.873 13.1493 31.6831 12.9304C31.6205 12.8577 31.4912 12.8429 31.3363 12.7782C31.3255 12.7466 31.2918 12.6456 31.2535 12.5338C31.3403 12.4913 31.4137 12.4516 31.4898 12.4193C31.6339 12.3573 31.7908 12.29 31.7565 12.1028C31.7363 11.991 31.6669 11.8348 31.5814 11.8031C31.477 11.764 31.3309 11.8348 31.205 11.9183C31.1208 11.8664 31.0373 11.8152 30.9545 11.764C31.1491 11.4112 31.4137 11.3081 31.708 11.457C32.0568 11.6334 32.1882 12.0624 31.9989 12.4368C31.9403 12.5526 31.8488 12.6685 32.0036 12.7594C32.104 12.818 32.2521 12.8846 32.3417 12.8503C32.4441 12.8112 32.5572 12.6705 32.5707 12.5627C32.5902 12.4038 32.5323 12.2334 32.4932 12.0711C32.4582 11.925 32.4037 11.7843 32.3511 11.6199C32.4501 11.5755 32.539 11.5351 32.6501 11.4852C32.7148 11.6677 32.7586 11.8395 32.838 11.993C32.8757 12.0657 32.9815 12.1028 33.0562 12.1567C33.0926 12.0657 33.1774 11.962 33.1572 11.8853C33.0636 11.529 32.9417 11.1802 32.8246 10.8125C32.9249 10.7714 33.0145 10.7344 33.1289 10.6872C33.3 11.197 33.465 11.69 33.6313 12.1822C33.669 12.294 33.6939 12.4152 33.7572 12.5109C33.7977 12.5728 33.8987 12.5937 33.9694 12.6375C34.0562 12.6914 34.1404 12.7506 34.226 12.8072C34.16 12.8779 34.1061 12.9816 34.0253 13.0126C33.8482 13.0799 33.6906 13.0025 33.5822 12.855C33.4933 12.7345 33.4232 12.5991 33.3444 12.4705" fill="#2984C6"/>
<path d="M39.5393 16.8C39.643 16.4121 39.5406 16.1939 39.1682 16.0087C39.1312 16.0794 39.0921 16.1501 39.0558 16.2228C39.0187 16.2976 38.9844 16.3737 38.944 16.4585C38.5992 16.4437 38.5897 16.1211 38.4072 15.9333C38.4982 15.8706 38.5655 15.8248 38.647 15.7683C38.7062 15.8316 38.7608 15.8895 38.8167 15.9487C38.8322 15.9393 38.851 15.9353 38.8551 15.9252C39.0113 15.5555 39.0854 15.5312 39.4423 15.7312C39.8086 15.9366 40.008 16.3784 39.9305 16.8114C39.7979 17.5508 38.9783 18.099 38.3089 17.8963C37.6968 17.7111 37.4523 17.006 37.8301 16.4902C37.8678 16.4383 37.985 16.4053 38.0517 16.4215C38.4618 16.5185 38.8679 16.6329 39.276 16.74C39.3635 16.7629 39.4517 16.7798 39.5386 16.7993M38.0901 16.8141C37.9567 17.1225 38.0207 17.3468 38.2625 17.4794C38.5743 17.6512 39.0645 17.505 39.3211 17.1441C38.9029 17.0316 38.4948 16.9225 38.0901 16.8134" fill="#2984C6"/>
<path d="M147.724 47.23C147.417 47.2266 147.111 47.2233 146.804 47.2199C146.705 47.1061 146.6 46.997 146.508 46.8778C146.266 46.5613 146.119 46.2078 146.276 45.8172C146.448 45.3909 146.834 45.2522 147.256 45.2138C147.489 45.1929 147.725 45.2097 147.976 45.2097V45.4387C147.943 45.4481 147.92 45.4596 147.896 45.4609C147.269 45.502 146.993 45.9128 147.241 46.4973C147.354 46.762 147.559 46.9869 147.723 47.2293" fill="#3587C8"/>
<path d="M37.9776 9.66501C37.9844 9.62797 37.9851 9.58757 37.9999 9.5539C38.2039 9.07576 38.412 8.59831 38.6154 8.1195C38.7521 7.79693 39.0134 7.59356 39.3023 7.40567C38.8605 8.15923 38.773 9.10944 38.0416 9.69397C38.0207 9.68454 37.9999 9.67511 37.9783 9.66501" fill="#2984C6"/>
<path d="M35.0233 1.01485C35.9358 1.01485 36.8489 1.01485 37.7614 1.01485C37.8375 1.01485 37.9372 0.990603 37.9843 1.02899C38.086 1.11115 38.2173 1.22091 38.2295 1.33136C38.2396 1.42429 38.1143 1.55359 38.0187 1.62834C37.9574 1.67615 37.8409 1.66201 37.7493 1.66201C35.9237 1.66335 34.098 1.66335 32.2724 1.66335C32.2218 1.66335 32.1707 1.66605 32.1202 1.66201C31.9202 1.64652 31.7781 1.55561 31.7619 1.34213C31.7478 1.15492 31.9026 1.01687 32.1323 1.01619C33.096 1.01283 34.0589 1.01485 35.0226 1.01485" fill="#F5F7FC"/>
<path d="M39.3649 1.34414C39.3602 1.54549 39.1864 1.71721 38.9911 1.71452C38.7844 1.71183 38.6032 1.52125 38.6147 1.3172C38.6255 1.11988 38.8053 0.957589 39.0059 0.96365C39.2059 0.969711 39.3696 1.14278 39.3649 1.34414Z" fill="#F5F7FC"/>
<path d="M43.3414 10.5579C43.2916 11.0118 43.1152 11.3445 42.8539 11.6347C42.8128 11.6805 42.6835 11.7169 42.6606 11.6933C42.6114 11.6428 42.5731 11.5452 42.5859 11.4772C42.6653 11.0644 42.9037 10.7707 43.3408 10.5579" fill="#F5F7FC"/>
<path d="M40.6915 9.96266C40.9454 10.0731 41.1609 10.16 41.0855 10.4307C41.0579 10.529 40.9252 10.5977 40.8397 10.6799C40.7683 10.5903 40.6538 10.5075 40.6363 10.4085C40.6134 10.2785 40.6659 10.1344 40.6915 9.96266Z" fill="#F5F7FC"/>
<path d="M40.9373 9.62593C41.0309 9.56128 41.1191 9.48384 41.2208 9.43535C41.2868 9.4037 41.3737 9.4138 41.4505 9.40504C41.4579 9.47643 41.4936 9.56195 41.4666 9.6165C41.4309 9.68654 41.3481 9.77475 41.2814 9.77812C41.1737 9.78418 41.0626 9.72761 40.9528 9.69731C40.9474 9.67374 40.9427 9.65017 40.9373 9.62593Z" fill="#F1F4FA"/>
<path d="M40.5663 14.352C40.208 14.5803 39.905 14.5231 39.6154 14.3547C39.2982 14.1702 39.1251 13.8907 39.1103 13.4523C39.6093 13.7608 40.0659 14.0429 40.5663 14.3513" fill="#F5F7FC"/>
<path d="M40.7467 14.0564C40.5656 13.9453 40.3824 13.8335 40.1602 13.6975C40.5959 13.6557 40.7582 13.4039 40.8033 13.0463C41.0504 13.3123 41.0343 13.6638 40.7467 14.0564Z" fill="#F1F4FA"/>
<path d="M32.1323 16.1656C32.3505 16.2033 32.4326 16.3622 32.469 16.5494C32.504 16.7306 32.4865 16.8996 32.3101 17.0181C32.1013 17.1589 31.8784 17.241 31.6515 17.0942C31.337 16.8908 31.0393 16.6619 30.6986 16.4181C30.9612 16.2827 31.1646 16.1784 31.3801 16.0672C31.2656 16.5077 31.3424 16.7716 31.5888 16.8282C31.8858 16.8962 32.042 16.7083 32.1316 16.1649" fill="#F1F4FA"/>
<path d="M32.9626 16.6464C32.6892 16.309 32.6555 15.705 32.0003 15.7905L32.0151 15.7245C32.1707 15.6403 32.3262 15.5555 32.5175 15.4517C32.6926 15.841 32.8616 16.2161 33.0306 16.5912C33.0084 16.6094 32.9855 16.6275 32.9633 16.6464" fill="#ECF0F9"/>
<path d="M27.8608 10.4313C27.8237 10.2044 27.5342 10.0313 27.8278 9.83671C27.8837 9.79967 28.054 9.83266 28.0924 9.88789C28.2641 10.1357 28.05 10.2562 27.8608 10.4313Z" fill="#F1F4FA"/>
<path d="M35.1297 16.1575C34.9317 15.8646 34.8758 15.5258 34.8664 15.177C34.865 15.1379 34.9802 15.0551 35.024 15.0652C35.0953 15.082 35.2044 15.1561 35.2071 15.2113C35.2246 15.5225 35.2159 15.8349 35.2159 16.1474C35.1869 16.1508 35.158 16.1541 35.1297 16.1575Z" fill="#ECF0F9"/>
<path d="M35.6731 16.4666C35.6563 16.2646 35.6287 16.0619 35.6247 15.8599C35.6199 15.6417 35.63 15.4228 35.6509 15.206C35.6556 15.1595 35.7331 15.1191 35.7769 15.0767C35.8058 15.113 35.8604 15.1501 35.8604 15.1858C35.855 15.5723 35.8435 15.9582 35.8253 16.344C35.8233 16.3892 35.7715 16.4316 35.7425 16.4754C35.7196 16.4727 35.696 16.47 35.6731 16.4673" fill="#ECF0F9"/>
<path d="M37.1944 12.5796C37.0732 12.6617 36.9628 12.7816 36.8294 12.8193C36.4543 12.9257 36.0927 12.8375 35.7654 12.6415C35.4879 12.4752 35.4024 12.2146 35.4772 11.8853C35.5984 11.9156 35.7162 11.9452 35.8375 11.9755C35.8375 12.0839 35.795 12.2267 35.8489 12.2961C35.9082 12.3728 36.0523 12.3924 36.1634 12.418C36.4004 12.4732 36.6395 12.5237 36.8806 12.5607C36.9668 12.5742 37.0604 12.5432 37.15 12.5324C37.1648 12.5479 37.1796 12.5641 37.1944 12.5803" fill="#F1F4FA"/>
<path d="M37.15 12.5325C37.2288 12.3654 37.2618 12.2281 37.0496 12.1089C36.9789 12.0691 36.9479 11.8853 36.9675 11.7796C36.9884 11.6698 37.0725 11.5142 37.1628 11.4866C37.3439 11.4307 37.4375 11.6065 37.4153 11.7432C37.3695 12.0267 37.2712 12.3015 37.1944 12.5796C37.1796 12.5634 37.1648 12.5479 37.15 12.5318" fill="#F1F4FA"/>
<path d="M35.8664 11.1344C35.9378 11.2415 36.0173 11.3088 36.0065 11.3566C35.9937 11.4152 35.9068 11.494 35.8496 11.4954C35.793 11.4967 35.7344 11.4139 35.6765 11.3674C35.7277 11.3041 35.7789 11.2415 35.8657 11.1344" fill="#ECF0F9"/>
<path d="M31.5013 8.51951C31.3767 8.36328 31.2595 8.28247 31.2487 8.18886C31.2272 7.99828 31.3902 7.91343 31.5464 7.9343C31.642 7.9471 31.807 8.10199 31.7935 8.13903C31.7498 8.2589 31.638 8.35318 31.5013 8.52018" fill="#F1F4FA"/>
<path d="M29.6022 13.789C29.413 13.7938 29.1638 13.5601 29.1591 13.3931C29.1544 13.2274 29.448 12.9816 29.6453 12.985C29.7726 12.987 29.9282 13.2698 29.9376 13.4981C29.9477 13.7581 29.7578 13.7628 29.6022 13.7884" fill="#F5F7FC"/>
<path d="M36.3722 7.85417C36.3264 8.1727 36.1567 8.23937 35.6691 8.16259C35.5055 8.137 35.4933 8.10872 35.5351 7.81578C35.8058 7.8279 36.0799 7.8407 36.3722 7.85417Z" fill="#F5F7FC"/>
<path d="M35.7324 8.54712C35.8684 8.57338 36.026 8.56665 36.1331 8.63736C36.2112 8.68854 36.2233 8.84141 36.2651 8.94915C36.158 8.95319 36.0227 8.99966 35.9513 8.95117C35.8381 8.87373 35.7674 8.73366 35.6792 8.61985C35.6967 8.59561 35.7142 8.57136 35.7324 8.54712Z" fill="#ECF0F9"/>
<path d="M38.0908 16.8148C38.4948 16.9232 38.9029 17.0329 39.3218 17.1454C39.0652 17.5064 38.5749 17.6518 38.2632 17.4808C38.0221 17.3481 37.9581 17.1239 38.0908 16.8154" fill="#F5F7FC"/>
<path d="M31.1666 49.1574C31.009 48.9984 30.8939 48.824 30.9828 48.5998C31.0137 48.5216 31.1181 48.4213 31.1868 48.4233C31.2609 48.4253 31.3693 48.521 31.3983 48.5998C31.4872 48.8388 31.3733 49.0166 31.1666 49.158" fill="#2C88C8"/>
<path d="M27.3335 48.3735C27.3335 48.7142 27.3402 49.0409 27.3261 49.3668C27.324 49.4153 27.2277 49.4954 27.1705 49.4995C26.9523 49.5149 26.7321 49.517 26.5146 49.4988C26.4546 49.4934 26.3577 49.4018 26.355 49.3459C26.3395 49.0281 26.3476 48.7095 26.3476 48.3728H27.3341L27.3335 48.3735Z" fill="#2C88C8"/>
</svg>
